<svg xmlns="http://www.w3.org/2000/svg" viewBox="0 0 347.07 314.34"><defs><style>.cls-1,.cls-2{fill:none;}.cls-1{stroke:#8a2d4f;stroke-linejoin:round;stroke-width:12px;}.cls-3{opacity:0.8;}.cls-4{fill:#e5ad00;}.cls-5{fill:#fff;opacity:0.2;}.cls-6{fill:#c6711b;}</style></defs><g id="Sobre"><rect class="cls-1" x="252.02" y="206.34" width="200.23" height="166.1" transform="matrix(1, 0, 0, 1, -182.11, -131.77)"/><polyline class="cls-1" points="70.43 73.97 108.97 152.31 233.85 152.01 270.65 73.49"/></g><g id="Manchas_flor" data-name="Manchas flor"><rect class="cls-2" x="184.58" y="295.69" width="159.25" height="112.06" transform="translate(-344.43 323.98) rotate(-66.88)"/><g class="cls-3"><path class="cls-4" d="M225.94,326.53l.34.15c-.91-.12-.56,1-.91.85C225.28,327.08,225.37,326.56,225.94,326.53Z" transform="translate(-181.41 -132.61)"/><path class="cls-4" d="M191.14,384.7l.93.4c.14,1.3-1.35,1.22-1.9,1.54-.58-.25-1.51.32-1.47-.77C189,384.6,190.1,384.53,191.14,384.7Z" transform="translate(-181.41 -132.61)"/><path class="cls-4" d="M209.35,374.77c-.39-1.69,2.75.35,2.25-2.36-.32-.55-1.59.15-1.54-.93,1.9-4.44.29-10.39-.8-15.28.73.86,2.59.41,3.12,1.75,1,2.1-.17,6.56,3.6,5.82a13.79,13.79,0,0,1,9.28,5.48c5.36.08,4.13-7.08,9.52-7.41a3.27,3.27,0,0,1,1.26,2.89c-.16,3-3.43,4.48-2.91,7.47,1.27.27,2.74.06,3.71,1,2.24,3.17,5.38,6.17,7,8.93-1.48.88-3.57.27-4.64,1.47,1,1-.46,2.71,1.44,3.1.26,1.36-1.36,1.91-2.36,2.32.16,1.87,6.21,2,3.29,3.61-.2,1.44-1.84-.23-2.41-.19a2.87,2.87,0,0,0-.3-1.24c-4.07.48-7.87-1-11.89-.65-1.23,3.21,1.68,6.11,1.43,9.6-.93-.4-.94-2.34-1.84-3.14l-2.74-1c-2,3-4.79.86-7,2.42,0-.69.75-1.76.58-2.66,1.07-2.17-2.32-1.68-2-3.64-1.4-.6-3,.81-4.44,1-.42,1.62-2.1,2-2.23,3.61-1,1.26-1.21-1.07-2.06-1,1.78-2.55,4.79-4.73,5.34-8-2-.57,1.08-1.89-1-2.22l-1.62.55a1,1,0,0,0-.49-1.45,14.14,14.14,0,0,0-3.35,1.06c.13-.64.81-1.59.19-2.41l-2.24-.26a6.67,6.67,0,0,0,4.69-3.54c-.45-.88-1.88-.11-2-.56.45-.09,1.59-.15,1.84-.74-1.59-1.78-4.55-3.6-6.82-3.46.8.06,0-.69.16-1C204,374,206.79,374.92,209.35,374.77Z" transform="translate(-181.41 -132.61)"/><path class="cls-4" d="M235.21,317.77c2.74-1.88,4.92-.53,7.63.91.39,1.68,1.86,3.42,1.61,5-2.32.25-1.16,4.34-3.82,2.79-.14,2.29-2.64.68-4,.53-1.57-.54-2.4-2.14-2.94-3.47,0-1,.4-1.91-.29-2.89C234.08,319.77,236.1,319.25,235.21,317.77Z" transform="translate(-181.41 -132.61)"/><path class="cls-5" d="M235.9,320.69c.28.95-.59.72-1.05.52C235.08,320.34,235.85,321.78,235.9,320.69Z" transform="translate(-181.41 -132.61)"/><path class="cls-5" d="M236.37,321.86c-.59,1.69,1.32,1.11,2.24,2.2-.62-.82-.39-.72.08-1.49.79.75-.25,1.56,1.1,1.3-.11-.05.79-1.18-.32-1.52,1.51-.6,1.41,2.54,2.25,2.2-.89-.51-1.44-.19-2.36-.31-.62.15-.28,1-.6,1.4-.28-.94-.8-1-2-.84.24.1.74-.11.72-.39-.22.18-.64-.13-.87-.23,0-.28.23.1.45-.09-.15-1.58-1.22-.38-1.84-.23.1-.23,1-.4.84-1.3s-.75-.18-1.06-.45Z" transform="translate(-181.41 -132.61)"/><path class="cls-5" d="M237,321.3c-.35-.15-.32-.55-.61-.53,1.23.38.54-1.57,1.41-.37-.57-.93.75-1.75.15-2.29l1.22.39c-.1.23-.22.18-.51.2.22.78,1.61.13,1.46-.49l.55,1.62c.19.22-.29-.95-.7-.3.15,1.59,1.48.08,2,.17-.38,1.22-.46,2.7,1,3.07-1.22-.39-1.45-.49-2.79-.92-.52-1.05,1.49.08.74-1.07h-.69c.17-.07.29,0,.34-.14-.86.05-1.31-.83-2.06,0,.62.81.05.85.22,1.75.87-1.71-1.74-1.44-2.68-.87C236.55,321.11,236.67,322.12,237,321.3Z" transform="translate(-181.41 -132.61)"/><path class="cls-4" d="M238,319.08l.31.55Z" transform="translate(-181.41 -132.61)"/><polygon class="cls-4" points="57.57 191.88 56.36 191.78 56.51 191.43 57.57 191.88"/><path class="cls-4" d="M206.27,398.49l1.19-.19Z" transform="translate(-181.41 -132.61)"/><path class="cls-5" d="M239.75,325c.5,1.74-.31-1.24,1.2.1-1,.4-.13,1.6-1.51.6Z" transform="translate(-181.41 -132.61)"/><path class="cls-4" d="M212.4,397.1c1,0,.92,2-.13,1.6C211.57,398.4,211.32,397.05,212.4,397.1Z" transform="translate(-181.41 -132.61)"/><path class="cls-4" d="M262,285.1c1.34-.54,2-3.15,3.42-2.83.05.85.75,1.15,1.54.93.65-.55.41-1.62,1.37-1.9,2.52,2.18,2.92.27,5.84,1.52,1.11-.63.84-2.27.93-3.47.76.18-.06.8.19,1.18,1.65-2.89,1.21-6.39,2.56-9.55,0,.68,1.35.72,1.4.6l-.91,6.66c4.47,4.12,9.65,4.95,15.69,5,1.72.18,1.68-3.29,3.22-1.39.26,3.29-4.7,4.22-3.9,7.19,2.11,2.83,3.66,6.67,4.94,9.16.14,2.27-3.75.05-2.66,3,.58.25,1.43.2,1.82.92-.8.9-3-.33-3.21,1.67.29,1,2,.57,1.38,2-1,1-2.13-1.18-3.06.35-2.54,1.41,1,2.22.22,3.7a3,3,0,0,1-2.39-.89c-.88.46-2.72,1.19-3.5,2.38a4.38,4.38,0,0,1,1.22,2.32c-1.67-.3-3.43-2-5.51-1.66-1.72.78,1,1.93-.82,2.56-.83-.64-1.05-2.39-2.32-2.66l-2.19,1.56c-5-2-7.72-6.21-13-7.48-1.25-2.89-3.66-5-5.89-6.94,1-.81,2-1.37,1.89-2.79-.55-.65-1.06-1.42-1.61-2.08.18-.74,1.15-.75,1.1-1.6L258.56,291c1.08-.92,2.53-1.41,2.85-2.8.61-1.12-.67-1.67-1.18-2.43C260.65,285.06,261.46,285.13,262,285.1Z" transform="translate(-181.41 -132.61)"/><path class="cls-4" d="M211.36,413.8a1.84,1.84,0,0,1-.35,1.79C210.3,415.29,210.57,414,211.36,413.8Z" transform="translate(-181.41 -132.61)"/><path class="cls-4" d="M264,317.34c0-1.53,1.78-.62,2-1.77,2,.73,3.31-1.91,5.29-.09,2.88.4.78,3.37,3.55,4-.76,2.44.49,6.3-3.35,7.84-1.55,1.69-3.22-1.52-4,1.21a3.13,3.13,0,0,0-1.49-2c-.58-.25-1.5.6-1.94,0-.3-1.23-.23-3-1.94-2.9,1.09-.92.45-2-.45-2.82C264.51,320.73,261.3,317.56,264,317.34Z" transform="translate(-181.41 -132.61)"/><rect class="cls-5" x="264.43" y="320.62" width="0.13" height="0.64" transform="translate(-315.94 305.54) rotate(-66.88)"/><path class="cls-5" d="M264.94,322.3c1.69-.38-.18.75,1.16,1.19-1.32-1.12.1.73-1.15.75-.57-.93.6-.43.54-1.29l-1.35-.71.85-.05Z" transform="translate(-181.41 -132.61)"/><polygon class="cls-5" points="85.06 186.75 84.52 187.07 84.67 186.71 85.06 186.75"/><path class="cls-5" d="M268.6,317.64c.41.31.13.33-.25.58Z" transform="translate(-181.41 -132.61)"/><polygon class="cls-5" points="85.16 192.04 85.27 191.12 85.49 191.91 85.16 192.04"/><polygon class="cls-5" points="87.06 191.47 86.16 191.64 86.83 191.37 87.06 191.47"/><path class="cls-5" d="M268.74,324.75l.62-.15Z" transform="translate(-181.41 -132.61)"/><path class="cls-5" d="M270,322.23l.39.72Z" transform="translate(-181.41 -132.61)"/><path class="cls-5" d="M270.86,323l.73-.1Z" transform="translate(-181.41 -132.61)"/><path class="cls-4" d="M286,355.34c0,.85.63,2.08-.55,2.26A1.31,1.31,0,0,1,284,356C284.36,355.21,285.41,354.69,286,355.34Z" transform="translate(-181.41 -132.61)"/><path class="cls-4" d="M292.35,356.27c3.49,1.22,5.2-3.45,8.78-3.72,1.65,0,.47,2.14,2,2.5.3-.7.95-1.25,1.08-1.89.44.61-.14,2.29,1.34,2.37a9.18,9.18,0,0,0,4-1c2.49,1.62.33,8.3,5.25,5.84-.63.84-2.17.87-2.21,2,.48,1.45,4.57.29,3.08,2.83-.51.2-1.06.52-.62,1.12.55,1.62,3,.17,3.17,1.64-1.93,1-2.77,3.24-5.17,3-1.25,1,.1,2.67-.13,3.55-.78,2.15-3.47,0-4.67,1.87a6.25,6.25,0,0,1-.48,5.33c-1.26-1.92-2.56.15-3.44.61-1.84-3.14-5.08.87-6.82-1.53-.13.63.16,1.58-.7,1.64-.75-1.16,1.15-2.7-.94-3.31-1,0-1.35-1.69-2.57-1.1-.62.15-.46,1.74-1.3,1.1.05-2.05-1.89-4-3-5.85-.59-1.22,1.67-1.64.18-2.69-.75-.19-1.55.72-2.34,0,.87-3.65,3.73-8.09,2.32-12.57A3.73,3.73,0,0,1,292.35,356.27Z" transform="translate(-181.41 -132.61)"/><path class="cls-4" d="M259.19,341.37a3.49,3.49,0,0,1,3.29,1.68c.69,1-.45,2,.57,2.87-1-.16-.88,1.42-1.67,1.64-1.11.35-2.33.94-3.52.16-.87-1.2-2.51-2.87-1.46-4.36C257,342.07,258.25,341.94,259.19,341.37Z" transform="translate(-181.41 -132.61)"/><path class="cls-5" d="M258.46,345.34c-.07.81-.68,1-1.22.59.85-1-1-1-.12-2C257.92,344,258.44,345.06,258.46,345.34Z" transform="translate(-181.41 -132.61)"/><path class="cls-5" d="M258,343.78l.37.43Z" transform="translate(-181.41 -132.61)"/><path class="cls-5" d="M261.36,343.4l-.73.11.18.21c.1-.23-1-.56-1.2-1.07C260.19,342.9,262,341.88,261.36,343.4Z" transform="translate(-181.41 -132.61)"/><path class="cls-5" d="M260.87,346.51c-.24-.1-1.31-1.8-.21-2.44-1.5,1.57,1.46.48,1.47,1.74l-.81-.35c1.1,1.3-.9,1.13-1.39,1.62.05-.12.17-.07.22-.18a.8.8,0,0,0-1.1-.34c-.12-.05-.09-.45-.35-.15C259.13,345.08,259.85,346.63,260.87,346.51Z" transform="translate(-181.41 -132.61)"/><path class="cls-5" d="M259.26,347.35l-.31.42c0-.41-.66-.42-.34-.84Z" transform="translate(-181.41 -132.61)"/></g><rect class="cls-2" x="318.64" y="161.17" width="192.61" height="135.53" transform="translate(-234.36 21.05) rotate(-19.75)"/><g class="cls-3"><path class="cls-6" d="M405.78,174.28l.15.43c-.64-.91-1.35.33-1.5-.11C404.76,174.15,405.29,173.8,405.78,174.28Z" transform="translate(-181.41 -132.61)"/><path class="cls-6" d="M325.59,191.3l.41,1.15c-1,1.2-2.19-.19-2.93-.41-.26-.73-1.53-1.08-.53-1.94C323.89,189.29,324.88,190.24,325.59,191.3Z" transform="translate(-181.41 -132.61)"/><path class="cls-6" d="M349.37,199.27c1.18-1.73,2,2.73,3.94.06.23-.74-1.44-1.29-.43-2.14,5.5-2,9.44-8.29,12.88-13.28-.17,1.36,1.76,2.63,1,4.21-1,2.65-6,5.24-2.2,8,2.71,3.44,3.5,8.39,2.77,12.73,4.34,4.82,9.68-2.17,14.41,2.35a3.93,3.93,0,0,1-1.53,3.49c-2.77,2.3-6.79.64-9,3.56.8,1.35,2.19,2.48,2.14,4.14-1,4.6-1.05,9.85-2.18,13.53-2-.59-3.18-3-5.12-2.9-.06,1.66-2.79,1.81-1.57,3.83-1,1.34-2.81.36-4-.2-1.52,1.69,3.38,7.12-.49,5.9-1.44,1-1.31-1.82-1.81-2.29A4,4,0,0,0,359,239c-3.77-3.22-5.58-7.81-9.21-11.08-3.86,1.55-4,6.52-7.33,9.17-.42-1.16,1.3-2.75,1.26-4.21l-1.34-3.28c-4.31.73-4.7-3.54-7.88-4.2.62-.55,2.17-.78,2.83-1.67,2.81-.84-.42-3.44,1.55-4.8-.62-1.74-3.16-2-4.55-3.11-1.78,1-3.51-.21-5,1-1.89.19,0-1.95-.79-2.66,3.74-.52,8.14.35,11.45-1.82-1.13-2.21,2.56-.59,1.15-2.7l-1.82-1c.72-.26,1.2-.76.89-1.63a18.29,18.29,0,0,0-3.7-2.1c.67-.41,2.08-.58,2.29-1.81l-1.61-2.2a8.05,8.05,0,0,0,7,1.25c.41-1.12-1.45-1.76-1.12-2.21.45.33,1.44,1.28,2.16,1,.28-2.88-.54-7-2.54-8.89.6.76.62-.55,1.06-.71C345.65,193.91,347.13,197.13,349.37,199.27Z" transform="translate(-181.41 -132.61)"/><path class="cls-6" d="M421.18,175.29c3.91.88,4.52,3.93,5.48,7.51-1.18,1.73-1.51,4.46-3.09,5.52-2.14-1.84-4.81,2.55-5.62-1.08-2.15,1.75-2.77-1.79-3.72-3.08-.82-1.83-.09-3.89.65-5.47.86-.8,2-1.21,2.33-2.63C418.47,175.93,420.59,177.3,421.18,175.29Z" transform="translate(-181.41 -132.61)"/><path class="cls-5" d="M419.15,178.3c-.6,1-1.11.08-1.32-.5C418.79,177.29,418.15,179.15,419.15,178.3Z" transform="translate(-181.41 -132.61)"/><path class="cls-5" d="M418.51,179.68c-2,.87.09,2.09-.11,3.8.22-1.22.32-.93,1.38-1.15,0,1.31-1.58,1.06-.24,2-.05-.15,1.69-.29,1.08-1.54,1.77.84-1.09,3.34-.1,3.8-.28-1.21-1-1.43-1.66-2.34-.65-.43-1.11.56-1.74.62.61-1,.26-1.56-.89-2.46.11.29.7.57.94.32-.34,0-.41-.68-.51-1,.23-.25.1.28.44.33,1.29-1.45-.66-1.4-1.31-1.82.3-.11,1.19.55,1.85-.34s-.46-.81-.47-1.3Z" transform="translate(-181.41 -132.61)"/><path class="cls-5" d="M419.53,179.8c-.15-.43.23-.73,0-1,.66,1.4,1.83-.82,1.48.94.36-1.27,2.17-.78,2.15-1.75l.66,1.39c-.28.11-.34,0-.59-.28-.51.84,1.21,1.53,1.63.89l-1,1.82c0,.35.61-1-.31-.86-1.28,1.44,1.15,1.38,1.5,1.91-1.4.66-2.78,1.81-1.86,3.45-.67-1.4-.77-1.69-1.49-3.23.51-1.32,1.15,1.39,1.55-.23l-.55-.62c.2.09.25.24.4.19-.75-.72-.34-1.84-1.66-1.86-.21,1.22-.71.74-1.37,1.63,2.23-.63-.16-2.72-1.43-3.08C419.32,179.22,418.52,180.17,419.53,179.8Z" transform="translate(-181.41 -132.61)"/><path class="cls-6" d="M422.28,178.82l-.22.73Z" transform="translate(-181.41 -132.61)"/><polygon class="cls-6" points="236.91 51.55 236 50.4 236.44 50.24 236.91 51.55"/><path class="cls-6" d="M325.81,216.06l1.15.9Z" transform="translate(-181.41 -132.61)"/><path class="cls-5" d="M418.54,185.23c-1.13,1.87.84-1.29.9,1.14-1.18-.55-1.53,1.21-1.77-.83Z" transform="translate(-181.41 -132.61)"/><path class="cls-6" d="M332.09,220.35c.8.86-1.06,2.5-1.53,1.2C330.25,220.68,331.24,219.34,332.09,220.35Z" transform="translate(-181.41 -132.61)"/><path class="cls-6" d="M472.2,172.17c1.58.75,4.46-.78,5.33.71-.72.74-.41,1.61.43,2.13,1,.12,1.78-1,2.82-.36.14,4,2.15,2.82,3.45,6.44,1.47.46,2.7-1.13,3.85-2,.46.82-.77.6-.9,1.14,3.92-.92,6.67-4.19,10.58-5.6-.62.55.48,1.79.62,1.74L491.73,181c0,7.35,3.54,12.62,8.44,18,1.25,1.68,4.3-1.21,3.88,1.72-2.7,2.93-7.6-.71-9.58,2.45-.78,4.21-2.91,8.73-4.06,11.92-1.9,2-3.14-3.28-4.86.11.26.73,1,1.44.69,2.37-1.46,0-2.21-3-4.13-1.46-.6,1,1.13,2.21-.61,2.83-1.66,0-.7-2.85-2.83-2.41-3.33-1.09-1.15,2.7-3.09,3.23A3.55,3.55,0,0,1,474.4,217c-1.13-.41-3.29-1.44-5-1.15a5.27,5.27,0,0,1-1.05,3c-1.11-1.73-1-4.69-3.07-6.26-2.11-.87-.91,2.46-2.93,1.39-.13-1.27,1.25-2.9.44-4.25l-3.18-.66c-2.33-6-.86-12-4.06-17.66,1.53-3.49,1.44-7.38,1.31-10.94,1.56.26,2.83.62,4-.62.13-1,.39-2.1.52-3.13.81-.45,1.61.4,2.32-.34l.43-2.44c1.71.2,3.34,1.09,4.83.22,1.5-.37.92-2,1.19-3C471.1,170.93,471.71,171.7,472.2,172.17Z" transform="translate(-181.41 -132.61)"/><path class="cls-6" d="M316.43,233.16a2.23,2.23,0,0,1-1.88,1.17C314.24,233.46,315.59,232.65,316.43,233.16Z" transform="translate(-181.41 -132.61)"/><path class="cls-6" d="M445.26,200.48c1.33-1.3,2,1.07,3.22.31,1,2.41,4.41,1.36,4.43,4.62,2,2.88-2.35,3.46-.62,6.44-2.8,1.33-5.18,5.62-9.71,3.48-2.77,0-1.3-4.1-4.34-2.52a3.8,3.8,0,0,0,.57-3c-.26-.72-1.77-.83-1.6-1.71.85-1.29,2.47-2.69,1-4.11,1.71.2,2.16-1.27,2.13-2.73C442.66,203.7,442.83,198.25,445.26,200.48Z" transform="translate(-181.41 -132.61)"/><rect class="cls-5" x="442.39" y="203.47" width="0.15" height="0.77" transform="translate(-224.27 28.87) rotate(-19.75)"/><path class="cls-5" d="M441.62,205.38c1.74,1.18-.81.46-.09,2-.1-2.09-.57.69-1.62-.41.36-1.27.88.18,1.59-.57l-.47-1.79.74.72Z" transform="translate(-181.41 -132.61)"/><polygon class="cls-5" points="264.08 71.7 263.35 71.48 263.78 71.32 264.08 71.7"/><path class="cls-5" d="M448.77,204.78c.06.63-.19.39-.73.26Z" transform="translate(-181.41 -132.61)"/><polygon class="cls-5" points="259.46 76.14 260.38 75.49 259.86 76.33 259.46 76.14"/><polygon class="cls-5" points="261.54 77.36 260.65 76.7 261.44 77.07 261.54 77.36"/><path class="cls-5" d="M442.58,210.76l.64.42Z" transform="translate(-181.41 -132.61)"/><path class="cls-5" d="M445.81,209.76l-.31.93Z" transform="translate(-181.41 -132.61)"/><path class="cls-5" d="M445.85,211.22l.69.57Z" transform="translate(-181.41 -132.61)"/><path class="cls-6" d="M429.64,251.2c-.72.75-1.32,2.27-2.45,1.37a1.58,1.58,0,0,1,.23-2.54C428.43,249.67,429.76,250.18,429.64,251.2Z" transform="translate(-181.41 -132.61)"/><path class="cls-6" d="M434.06,257.62c1.8,4.1,7.34,1.78,10.53,4.72,1.34,1.48-1.51,2.18-.6,3.81.87-.31,1.9-.19,2.57-.59-.18.88-2.15,1.75-1,3.13.95,1.3,2.87,2.08,4.24,2.73.62,3.54-7.08,7.12-.85,9.46-1.26.13-2.56-1.21-3.56-.36-.89,1.63,3.5,4.3,0,5.06-.59-.27-1.33-.5-1.5.38-1,1.82,2.3,2.77,1.17,4.16-2.46-.92-5.16.21-7-2.08-1.91-.3-2.28,2.29-3.25,2.8-2.55,1.08-2.89-3-5.51-2.6a7.53,7.53,0,0,1-5.11,4c.67-2.69-2.24-2.14-3.37-2.55,1.27-4.21-4.95-3.78-4.25-7.3-.68.4-1.28,1.44-2,.73.4-1.62,3.33-1.2,2.16-3.55-.8-.86.38-2.59-1.15-3.19-.64-.42-1.92,1-2.05-.25,1.86-1.64,2-5,2.7-7.5.6-1.53,2.83.13,2.53-2.06-.45-.81-1.91-.78-1.89-2.09,3.94-2.24,10.24-3.35,13-8.28A4.47,4.47,0,0,1,434.06,257.62Z" transform="translate(-181.41 -132.61)"/><path class="cls-6" d="M420,216c1.15,1.38,1.71,2.49,1.22,4.3-.31,1.42-2.16,1.26-2.08,2.87-.7-1.06-2,.39-2.82-.13-1.24-.7-2.76-1.3-3-3,.35-1.76.48-4.58,2.66-4.88C417.52,214.56,418.71,215.61,420,216Z" transform="translate(-181.41 -132.61)"/><path class="cls-5" d="M415.87,218.59a.88.88,0,0,1-1.53-.6c1.61-.08.06-1.65,1.67-1.74A2.25,2.25,0,0,1,415.87,218.59Z" transform="translate(-181.41 -132.61)"/><path class="cls-5" d="M416.9,216.91l-.08.69Z" transform="translate(-181.41 -132.61)"/><path class="cls-5" d="M420,219.57l-.69-.57,0,.34c.29-.1-.32-1.35,0-1.94C419.46,218.12,421.86,218.89,420,219.57Z" transform="translate(-181.41 -132.61)"/><path class="cls-5" d="M416.81,221.68c-.1-.28.53-2.63,2-2.18-2.62,0,.77,1.68-.32,2.73l-.36-1c-.25,2.05-1.75.13-2.58.1.14,0,.2.1.34.05a1,1,0,0,0-.61-1.26c0-.14.33-.44-.16-.43C416.65,219,415.87,220.88,416.81,221.68Z" transform="translate(-181.41 -132.61)"/><path class="cls-5" d="M414.75,221l-.63.07c.38-.31-.17-.92.46-1Z" transform="translate(-181.41 -132.61)"/></g><rect class="cls-2" x="295.71" y="246.19" width="159.25" height="112.06" transform="translate(-231.4 396.11) rotate(-66.88)"/><g class="cls-3"><path class="cls-4" d="M337.07,277l.35.15c-.92-.12-.57,1-.92.85C336.42,277.57,336.5,277.05,337.07,277Z" transform="translate(-181.41 -132.61)"/><path class="cls-4" d="M302.27,335.19l.94.4c.13,1.3-1.35,1.22-1.9,1.54-.59-.25-1.52.32-1.48-.77C300.1,335.09,301.23,335,302.27,335.19Z" transform="translate(-181.41 -132.61)"/><path class="cls-4" d="M320.48,325.26c-.39-1.69,2.76.35,2.25-2.36-.32-.55-1.58.15-1.54-.93,1.9-4.44.29-10.39-.8-15.28.73.87,2.59.41,3.12,1.75,1,2.1-.17,6.56,3.6,5.82a13.77,13.77,0,0,1,9.28,5.49c5.36.07,4.13-7.09,9.53-7.42a3.28,3.28,0,0,1,1.25,2.89c-.16,3-3.43,4.48-2.91,7.47,1.27.27,2.74.06,3.71,1,2.24,3.17,5.38,6.17,7,8.93-1.49.89-3.58.27-4.65,1.47,1,1-.46,2.71,1.45,3.11.25,1.35-1.37,1.9-2.37,2.31.16,1.87,6.21,2,3.29,3.61-.2,1.44-1.84-.23-2.4-.19a3.07,3.07,0,0,0-.31-1.24c-4.07.48-7.86-1-11.89-.65-1.23,3.21,1.68,6.11,1.43,9.6-.93-.4-.93-2.34-1.84-3.13l-2.74-1c-2,3-4.79.86-7,2.42,0-.69.75-1.76.58-2.66,1.07-2.17-2.32-1.68-2-3.64-1.4-.6-3,.81-4.44,1-.41,1.62-2.1,2-2.23,3.61-.95,1.26-1.21-1.07-2.06-1,1.79-2.56,4.79-4.74,5.34-8-2-.57,1.08-1.89-1-2.22l-1.62.55a1,1,0,0,0-.49-1.45,14.62,14.62,0,0,0-3.35,1.06c.13-.64.81-1.59.19-2.41l-2.23-.26a6.66,6.66,0,0,0,4.68-3.53c-.45-.89-1.88-.12-2-.57.45-.08,1.59-.15,1.84-.74-1.59-1.78-4.55-3.6-6.82-3.46.8.06,0-.69.17-1C315.13,324.5,317.92,325.42,320.48,325.26Z" transform="translate(-181.41 -132.61)"/><path class="cls-4" d="M346.34,268.26c2.74-1.88,4.93-.53,7.64.91.38,1.68,1.85,3.42,1.6,5-2.32.26-1.16,4.35-3.82,2.79-.14,2.29-2.63.68-3.95.53-1.57-.53-2.41-2.14-2.95-3.47,0-1,.4-1.91-.29-2.89C345.21,270.26,347.23,269.74,346.34,268.26Z" transform="translate(-181.41 -132.61)"/><path class="cls-5" d="M347,271.18c.28.95-.58.72-1,.52C346.21,270.83,347,272.27,347,271.18Z" transform="translate(-181.41 -132.61)"/><path class="cls-5" d="M347.5,272.35c-.58,1.69,1.32,1.11,2.24,2.2-.62-.82-.39-.72.08-1.49.79.75-.25,1.56,1.11,1.3-.12-.05.78-1.18-.32-1.52,1.5-.6,1.4,2.54,2.24,2.2-.89-.51-1.44-.19-2.36-.31-.62.15-.28,1-.6,1.41-.28-.95-.8-1-2-.85.24.1.74-.1.72-.39-.22.19-.63-.13-.87-.23,0-.28.24.1.45-.08-.15-1.59-1.22-.39-1.84-.24.1-.23,1-.4.84-1.3s-.75-.18-1.05-.45Z" transform="translate(-181.41 -132.61)"/><path class="cls-5" d="M348.15,271.8c-.35-.15-.32-.55-.6-.54,1.22.38.53-1.57,1.4-.37-.57-.93.75-1.75.15-2.29l1.22.39c-.1.23-.22.18-.5.2.21.78,1.6.13,1.45-.49l.55,1.62c.19.22-.28-.95-.7-.3.15,1.59,1.49.08,2,.17-.38,1.22-.46,2.7,1.05,3.07-1.23-.39-1.46-.49-2.8-.92-.52-1,1.49.09.74-1.07h-.69c.17-.07.29,0,.34-.14-.86.05-1.31-.83-2.06,0,.62.81.05.85.22,1.75.87-1.71-1.74-1.44-2.67-.87C347.68,271.6,347.8,272.62,348.15,271.8Z" transform="translate(-181.41 -132.61)"/><path class="cls-4" d="M349.1,269.57l.32.55Z" transform="translate(-181.41 -132.61)"/><polygon class="cls-4" points="168.7 142.37 167.49 142.27 167.64 141.92 168.7 142.37"/><path class="cls-4" d="M317.41,349l1.18-.18Z" transform="translate(-181.41 -132.61)"/><path class="cls-5" d="M350.88,275.45c.5,1.74-.31-1.24,1.2.1-1,.4-.13,1.6-1.5.6Z" transform="translate(-181.41 -132.61)"/><path class="cls-4" d="M323.53,347.59c1,0,.92,2.05-.13,1.6C322.7,348.89,322.45,347.54,323.53,347.59Z" transform="translate(-181.41 -132.61)"/><path class="cls-4" d="M373.15,235.59c1.34-.54,2-3.14,3.42-2.83.05.85.76,1.15,1.54.93.65-.55.42-1.62,1.37-1.9,2.52,2.18,2.92.28,5.85,1.52,1.1-.63.83-2.27.93-3.47.75.18-.07.8.18,1.18,1.65-2.89,1.21-6.39,2.56-9.55,0,.68,1.35.72,1.4.6l-.91,6.66c4.47,4.12,9.65,5,15.69,5,1.72.18,1.69-3.29,3.22-1.39.26,3.29-4.7,4.22-3.9,7.19,2.12,2.83,3.66,6.67,4.95,9.16.13,2.27-3.76.06-2.67,3,.58.25,1.43.2,1.82.92-.8.9-3-.33-3.21,1.67.29.95,2,.57,1.38,2-1,1-2.12-1.18-3.06.35-2.53,1.41,1,2.22.22,3.7a3,3,0,0,1-2.39-.89c-.88.46-2.72,1.19-3.5,2.38a4.38,4.38,0,0,1,1.22,2.32c-1.67-.3-3.42-2-5.51-1.66-1.72.79,1,1.93-.82,2.56-.83-.64-1.05-2.39-2.32-2.66L388.42,264c-5-2-7.72-6.21-13-7.48-1.26-2.89-3.67-5-5.89-6.94,1-.81,2-1.37,1.88-2.79-.55-.65-1.06-1.42-1.6-2.07.18-.75,1.14-.76,1.1-1.61l-1.24-1.63c1.08-.92,2.53-1.41,2.85-2.8.62-1.11-.67-1.66-1.18-2.43C371.78,235.56,372.59,235.62,373.15,235.59Z" transform="translate(-181.41 -132.61)"/><path class="cls-4" d="M322.49,364.29a1.84,1.84,0,0,1-.35,1.79C321.44,365.78,321.7,364.51,322.49,364.29Z" transform="translate(-181.41 -132.61)"/><path class="cls-4" d="M375.15,267.83c0-1.53,1.79-.61,2-1.77,2,.73,3.31-1.91,5.3-.09,2.87.4.77,3.38,3.54,4-.76,2.44.5,6.3-3.34,7.84-1.55,1.69-3.23-1.52-4,1.21a3.13,3.13,0,0,0-1.49-2c-.58-.25-1.5.6-1.93,0-.31-1.23-.24-3-1.94-2.9,1.08-.92.44-2-.46-2.82C375.64,271.22,372.43,268.06,375.15,267.83Z" transform="translate(-181.41 -132.61)"/><rect class="cls-5" x="375.56" y="271.11" width="0.13" height="0.64" transform="translate(-202.91 377.68) rotate(-66.88)"/><path class="cls-5" d="M376.07,272.8c1.69-.39-.18.74,1.16,1.18-1.32-1.12.1.73-1.15.75-.57-.93.6-.43.55-1.29l-1.36-.71.86-.05Z" transform="translate(-181.41 -132.61)"/><polygon class="cls-5" points="196.2 137.24 195.65 137.56 195.8 137.21 196.2 137.24"/><path class="cls-5" d="M379.73,268.13c.42.32.13.33-.25.58Z" transform="translate(-181.41 -132.61)"/><polygon class="cls-5" points="196.29 142.53 196.4 141.61 196.62 142.4 196.29 142.53"/><polygon class="cls-5" points="198.19 141.96 197.29 142.13 197.96 141.86 198.19 141.96"/><path class="cls-5" d="M379.87,275.24l.62-.15Z" transform="translate(-181.41 -132.61)"/><path class="cls-5" d="M381.09,272.72l.38.72Z" transform="translate(-181.41 -132.61)"/><path class="cls-5" d="M382,273.52l.73-.1Z" transform="translate(-181.41 -132.61)"/><path class="cls-4" d="M397.1,305.83c0,.86.63,2.08-.55,2.26a1.31,1.31,0,0,1-1.41-1.57C395.49,305.7,396.55,305.18,397.1,305.83Z" transform="translate(-181.41 -132.61)"/><path class="cls-4" d="M403.48,306.76c3.49,1.22,5.2-3.45,8.78-3.72,1.65,0,.47,2.14,2,2.5.3-.7.95-1.25,1.09-1.89.43.61-.15,2.29,1.33,2.37,1.32.16,2.88-.57,4-1,2.49,1.61.33,8.29,5.26,5.83-.64.84-2.17.88-2.22,2,.48,1.45,4.57.3,3.08,2.83-.51.21-1.06.53-.62,1.12.55,1.63,3,.17,3.17,1.64-1.93,1-2.76,3.24-5.17,3.05-1.25,1,.11,2.66-.13,3.54-.78,2.15-3.47,0-4.67,1.87a6.25,6.25,0,0,1-.48,5.33c-1.26-1.92-2.55.15-3.44.61-1.84-3.14-5.08.87-6.81-1.53-.14.63.15,1.58-.7,1.64-.76-1.16,1.14-2.69-.94-3.31-1,0-1.36-1.68-2.58-1.1-.61.15-.46,1.74-1.3,1.11.05-2.06-1.89-4-3-5.86-.59-1.22,1.67-1.64.18-2.69-.75-.18-1.55.72-2.34,0,.87-3.65,3.73-8.09,2.32-12.57A3.75,3.75,0,0,1,403.48,306.76Z" transform="translate(-181.41 -132.61)"/><path class="cls-4" d="M370.32,291.86a3.49,3.49,0,0,1,3.29,1.68c.69,1-.45,2,.57,2.87-1-.16-.88,1.43-1.66,1.64-1.12.36-2.34.94-3.53.16-.87-1.2-2.51-2.87-1.46-4.36C368.08,292.56,369.39,292.43,370.32,291.86Z" transform="translate(-181.41 -132.61)"/><path class="cls-5" d="M369.59,295.84c-.06.8-.68,1-1.22.58.85-1-1-1-.12-2C369.06,294.5,369.57,295.55,369.59,295.84Z" transform="translate(-181.41 -132.61)"/><path class="cls-5" d="M369.16,294.27l.36.43Z" transform="translate(-181.41 -132.61)"/><path class="cls-5" d="M372.49,293.89l-.73.11.18.21c.1-.23-1-.56-1.2-1.07C371.32,293.39,373.14,292.37,372.49,293.89Z" transform="translate(-181.41 -132.61)"/><path class="cls-5" d="M372,297c-.24-.1-1.31-1.8-.21-2.44-1.5,1.58,1.46.49,1.48,1.74l-.82-.35c1.1,1.3-.9,1.14-1.39,1.62.05-.12.17-.07.22-.18a.8.8,0,0,0-1.1-.34c-.12-.05-.09-.45-.35-.15C370.26,295.57,371,297.12,372,297Z" transform="translate(-181.41 -132.61)"/><path class="cls-5" d="M370.39,297.84l-.31.42c0-.4-.65-.42-.34-.84Z" transform="translate(-181.41 -132.61)"/></g></g></svg>