<svg xmlns="http://www.w3.org/2000/svg" viewBox="0 0 345.15 316.98"><defs><style>.cls-1,.cls-3{fill:none;}.cls-1,.cls-2{stroke:#8a2d4f;stroke-linecap:round;stroke-linejoin:round;}.cls-1{stroke-width:14px;}.cls-2{fill:#842b4c;stroke-width:5px;}.cls-4{opacity:0.8;}.cls-5{fill:#e5ad00;}.cls-6{fill:#fff;opacity:0.2;}.cls-7{fill:#c6711b;}</style></defs><g id="Sobre"><circle class="cls-1" cx="308.33" cy="205.9" r="31.19" transform="translate(-190.8 239.04) rotate(-45)"/><rect class="cls-1" x="89.5" y="82.2" width="166.58" height="166.58" rx="27.39"/><circle class="cls-2" cx="213.09" cy="121.05" r="7.92"/></g><g id="Manchas_flor" data-name="Manchas flor"><rect class="cls-3" x="180.9" y="206.62" width="76.92" height="109.31" transform="translate(-256.69 201.48) rotate(-46.54)"/><g class="cls-4"><path class="cls-5" d="M244.71,242.66l-.18.19c.29-.57-.51-.61-.33-.8C244.51,242.11,244.82,242.28,244.71,242.66Z" transform="translate(-135.52 -39.29)"/><path class="cls-5" d="M215.57,206.38l-.48.51c-.87-.22-.46-1.16-.54-1.59.3-.32.16-1.05.85-.76C216.15,205,215.93,205.76,215.57,206.38Z" transform="translate(-135.52 -39.29)"/><path class="cls-5" d="M217.62,220.47c1.17.16-.88,1.69,1,2,.43-.07.28-1,1-.76,2.4,2.28,6.61,2.66,10,3.12-.73.27-.88,1.57-1.87,1.6-1.6.16-4.18-1.68-4.61.93a9.45,9.45,0,0,1-5.74,4.66c-1.33,3.43,3.58,4.35,2.5,7.9a2.25,2.25,0,0,1-2.16.12c-1.87-.82-2.06-3.28-4.11-3.66-.48.75-.7,1.75-1.55,2.14-2.58.69-5.26,2-7.41,2.36-.22-1.17.68-2.36.16-3.34-.86.4-1.63-.94-2.34.19-.93-.16-.9-1.34-.93-2.08-1.24-.33-2.74,3.54-3.11,1.26-.88-.47.59-1.13.7-1.5a2,2,0,0,0,.87.1c.66-2.74,2.52-4.82,3.26-7.5-1.78-1.56-4.34-.38-6.53-1.37.48-.5,1.73,0,2.46-.43l1.32-1.52c-1.47-2,.59-3.29.11-5.07.44.17.95.9,1.57,1,1.15,1.2,1.64-1.1,2.83-.45.72-.76.19-2.1.41-3.1-.94-.65-.79-1.83-1.79-2.3-.58-.91,1-.52,1.15-1.08,1.22,1.76,1.9,4.21,3.84,5.34.84-1.14,1,1.14,1.67-.11l0-1.17a.67.67,0,0,0,1.05,0,10.68,10.68,0,0,0,.12-2.41c.38.23.83.9,1.5.7l.7-1.38a4.58,4.58,0,0,0,1.16,3.86c.67-.08.52-1.19.83-1.13-.05.31-.28,1.05,0,1.35,1.53-.59,3.4-2.06,3.86-3.56-.24.5.43.17.62.36C219.38,217.21,218.13,218.79,217.62,220.47Z" transform="translate(-135.52 -39.29)"/><path class="cls-5" d="M248.13,250.72c.56,2.21-.83,3.29-2.4,4.69-1.18-.15-2.65.38-3.59-.15.39-1.55-2.52-1.78-.88-3.12-1.44-.64.19-1.86.6-2.68a3.78,3.78,0,0,1,2.94-1.06c.62.23,1.13.71,1.93.5C247.11,249.51,247,250.93,248.13,250.72Z" transform="translate(-135.52 -39.29)"/><path class="cls-6" d="M246.09,250.46c-.68,0-.32-.54-.08-.8C246.51,250,245.4,250.17,246.09,250.46Z" transform="translate(-135.52 -39.29)"/><path class="cls-6" d="M245.23,250.49c-.95-.78-1,.58-2,.91.68-.2.56-.07.94.41-.67.33-.94-.53-1.1.4.06-.06.58.79,1,.16,0,1.11-2,.3-1.95.91.55-.44.47-.87.77-1.44.05-.43-.57-.41-.76-.72.68,0,.85-.27,1-1.08-.12.13-.11.5.07.56-.06-.18.24-.38.36-.5.19.05-.12.12,0,.3,1.06.29.54-.69.59-1.12.12.12,0,.74.63.85s.3-.44.55-.57Z" transform="translate(-135.52 -39.29)"/><path class="cls-6" d="M245.43,251c.18-.19.43-.08.48-.26-.53.69.89.71-.09,1,.73-.15,1,.9,1.43.64l-.53.69c-.13-.12-.07-.18,0-.37-.56,0-.47,1,0,1.05l-1.17,0c-.18.07.68.05.36-.38-1.06-.28-.41.94-.59,1.25-.69-.54-1.63-.94-2.22-.06.54-.69.66-.82,1.25-1.58.81-.08-.4.94.52.73l.17-.44c0,.12-.06.19,0,.25.17-.56.85-.64.52-1.31-.67.2-.56-.17-1.18-.28.89,1,1.34-.78,1.19-1.51C245.67,250.78,245,250.62,245.43,251Z" transform="translate(-135.52 -39.29)"/><path class="cls-5" d="M246.63,252.18l-.43.07Z" transform="translate(-135.52 -39.29)"/><polygon class="cls-5" points="107.39 212.25 107.74 211.49 107.93 211.68 107.39 212.25"/><path class="cls-5" d="M203.09,212.83l-.17.81Z" transform="translate(-135.52 -39.29)"/><path class="cls-6" d="M242.42,251.92c-1.23-.09.87.1-.35.75,0-.74-1-.47,0-1.11Z" transform="translate(-135.52 -39.29)"/><path class="cls-5" d="M202.52,217.11c-.23.62-1.54.1-1-.47C201.88,216.26,202.81,216.42,202.52,217.11Z" transform="translate(-135.52 -39.29)"/><path class="cls-5" d="M262.76,275.77c0,1,1.54,2.06,1,2.88-.56-.18-.92.2-1,.76.2.55.94.65.9,1.34-2,1.1-.88,1.81-2.38,3.4.15.86,1.27,1.07,2,1.42-.3.44-.5-.23-.81-.16,1.47,1.75,3.83,2.3,5.54,3.93-.44-.18-.78.7-.72.76l-4.07-2.18c-3.72,1.89-5.49,5-7,8.9-.53,1.06,1.72,1.86.12,2.4-2.17-.62-1.58-4-3.69-4.22a43.92,43.92,0,0,1-7.08,1c-1.49-.45.87-2.43-1.3-2.43-.3.31-.47.87-1,.95-.39-.73.94-1.88-.31-2.46-.68-.05-.84,1.13-1.6.41-.39-.85,1.27-1.08.5-2-.3-2-1.66.11-2.43-.74a2,2,0,0,1,1.14-1.33,6.21,6.21,0,0,0-.69-2.82,2.94,2.94,0,0,1-1.79.23c.59-1,2.12-1.72,2.39-3.15-.1-1.29-1.48.17-1.45-1.13.61-.39,1.79-.11,2.26-.86l-.48-1.78c2.46-2.72,5.84-3.49,7.91-6.58a14.16,14.16,0,0,0,5.88-2.13c.27.86.41,1.59,1.34,1.88.55-.2,1.17-.34,1.72-.54.44.29.21.92.77,1.09l1.35-.41c.33.92.3,2,1.11,2.5.58.67,1.24,0,1.85-.17C263.11,274.89,262.88,275.4,262.76,275.77Z" transform="translate(-135.52 -39.29)"/><path class="cls-5" d="M192,212.45a1.26,1.26,0,0,1-1.07-.65C191.31,211.42,192.07,211.89,192,212.45Z" transform="translate(-135.52 -39.29)"/><path class="cls-5" d="M241.53,269.36c1,.34,0,1.3.67,1.71-1,1.14.44,2.58-1.21,3.43-.94,1.75-2.35-.31-3.42,1.33-1.39-1.08-4.17-1.19-4.25-4-.71-1.4,1.75-1.71.17-2.84a2.17,2.17,0,0,0,1.66-.48c.3-.32,0-1.11.46-1.25.87.1,2,.57,2.33-.55.33.91,1.2.77,1.93.38C239.24,268.87,242,267.56,241.53,269.36Z" transform="translate(-135.52 -39.29)"/><rect class="cls-6" x="238.89" y="268.76" width="0.44" height="0.09" transform="translate(-255.99 218.16) rotate(-46.54)"/><path class="cls-6" d="M238.12,268.77c-.15,1.18-.44-.29-1,.46,1-.58-.49-.11-.21-.92.74-.14.14.49.7.66l.78-.7-.17.56Z" transform="translate(-135.52 -39.29)"/><polygon class="cls-6" points="104.13 231.17 104.06 230.74 104.25 230.92 104.13 231.17"/><path class="cls-6" d="M240.25,272.24c-.3.19-.25,0-.32-.3Z" transform="translate(-135.52 -39.29)"/><polygon class="cls-6" points="100.7 229.96 101.27 230.26 100.71 230.21 100.7 229.96"/><polygon class="cls-6" points="100.61 231.32 100.72 230.71 100.73 231.2 100.61 231.32"/><path class="cls-6" d="M235.64,270.63l0,.43Z" transform="translate(-135.52 -39.29)"/><path class="cls-6" d="M237,272l-.55.08Z" transform="translate(-135.52 -39.29)"/><path class="cls-6" d="M236.24,272.4l-.11.5Z" transform="translate(-135.52 -39.29)"/><path class="cls-5" d="M211.84,274.42c-.56-.17-1.49-.09-1.32-.89a.89.89,0,0,1,1.34-.53C212.31,273.42,212.39,274.22,211.84,274.42Z" transform="translate(-135.52 -39.29)"/><path class="cls-5" d="M209.72,278.3c-1.62,2,1,4.18.3,6.54-.4,1.06-1.49-.21-2.08.68.38.36.58.91,1,1.14-.5.14-1.44-.64-1.85.3a6.26,6.26,0,0,0-.29,2.85c-1.64,1.22-5.42-1.77-5,2-.39-.6-.05-1.6-.74-1.89-1,0-1.28,2.88-2.55,1.31,0-.37-.09-.81-.58-.67-1.17,0-.81,1.88-1.81,1.66-.16-1.48-1.42-2.56-.72-4.06-.34-1-1.75-.57-2.25-.93-1.2-1,.8-2.24-.09-3.46a4.28,4.28,0,0,1-3.32-1.57c1.54-.35.51-1.69.43-2.36,2.46-.44.65-3.48,2.61-4-.38-.24-1.06-.28-.89-.85.93-.2,1.46,1.39,2.36.19.23-.62,1.4-.47,1.32-1.4,0-.43-1-.71-.4-1.1,1.31.52,3-.26,4.49-.55.93-.09.66,1.47,1.69.76.3-.44-.1-1.17.58-1.5,2.13,1.43,4.31,4.33,7.53,4.49A2.55,2.55,0,0,1,209.72,278.3Z" transform="translate(-135.52 -39.29)"/><path class="cls-5" d="M227.22,260.52a2.4,2.4,0,0,1-1.87,1.72c-.79.2-1.19-.77-2-.32.35-.63-.7-.91-.66-1.47,0-.8,0-1.72.74-2.3,1-.27,2.45-.93,3.16.1C227.3,258.91,227.08,259.78,227.22,260.52Z" transform="translate(-135.52 -39.29)"/><path class="cls-6" d="M224.84,259.1a.49.49,0,0,1-.09-.92c.45.79.86-.4,1.31.39A1.25,1.25,0,0,1,224.84,259.1Z" transform="translate(-135.52 -39.29)"/><path class="cls-6" d="M226,259.2l-.37.13Z" transform="translate(-135.52 -39.29)"/><path class="cls-6" d="M225.39,261.43l.11-.5-.18.07c.13.12.6-.51,1-.52C226,260.8,226.22,262.21,225.39,261.43Z" transform="translate(-135.52 -39.29)"/><path class="cls-6" d="M223.51,260.37c.12-.13,1.47-.41,1.62.45-.65-1.34-.66.82-1.47.54l.42-.45c-1.1.4-.51-.85-.71-1.28.06.06,0,.13.07.19a.56.56,0,0,0,.47-.63c.06-.07.31.05.18-.19C224.85,259.59,223.68,259.69,223.51,260.37Z" transform="translate(-135.52 -39.29)"/><path class="cls-6" d="M223.36,259.14l-.2-.3c.25.11.43-.32.62,0Z" transform="translate(-135.52 -39.29)"/></g><rect class="cls-3" x="157.63" y="78.53" width="212.79" height="149.74" transform="translate(-176.1 92.82) rotate(-26.16)"/><g class="cls-4"><path class="cls-7" d="M247.22,94.52l.23.46c-.83-.92-1.45.52-1.67.06C246.09,94.51,246.62,94.06,247.22,94.52Z" transform="translate(-135.52 -39.29)"/><path class="cls-7" d="M161.28,123.1l.6,1.22c-1,1.44-2.43.06-3.27-.1-.37-.76-1.82-1-.82-2C159.17,121.11,160.38,122,161.28,123.1Z" transform="translate(-135.52 -39.29)"/><path class="cls-7" d="M188.38,128.92c1.08-2,2.48,2.75,4.33-.43.16-.83-1.74-1.23-.74-2.28,5.79-2.85,9.34-10.27,12.5-16.18,0,1.52,2.26,2.68,1.64,4.5-.78,3-5.9,6.49-1.43,9,3.4,3.45,4.88,8.78,4.62,13.64,5.36,4.75,10.36-3.58,16.1.8a4.38,4.38,0,0,1-1.24,4c-2.76,2.87-7.38,1.54-9.46,5,1.05,1.38,2.72,2.46,2.86,4.28-.49,5.17.07,11-.72,15.12-2.28-.39-3.85-2.84-6-2.55.13,1.83-2.83,2.34-1.25,4.4-.92,1.59-3.05.74-4.41.28-1.46,2,4.58,7.4.18,6.53-1.45,1.28-1.66-1.83-2.27-2.29a4.08,4.08,0,0,0,.78-1.52c-4.54-3.07-7.09-7.88-11.48-11-4,2.18-3.62,7.66-6.92,11-.6-1.22,1.09-3.19.87-4.78L184.48,163c-4.64,1.34-5.6-3.31-9.17-3.64.62-.68,2.29-1.12,2.91-2.18,3-1.27-.89-3.73,1.1-5.47-.9-1.83-3.71-1.77-5.37-2.85-1.84,1.28-3.88.21-5.41,1.71-2.06.45-.3-2.13-1.2-2.82,4-1,9-.62,12.34-3.41-1.51-2.29,2.74-1,.93-3.11l-2.12-.85a1.3,1.3,0,0,0,.77-1.89,20,20,0,0,0-4.32-1.86c.69-.52,2.22-.89,2.3-2.26l-2-2.22a8.89,8.89,0,0,0,7.83.51c.31-1.29-1.81-1.76-1.51-2.29.54.31,1.75,1.23,2.51.85-.06-3.19-1.47-7.61-3.89-9.45.75.77.61-.68,1.07-.9C183.62,123.49,185.65,126.85,188.38,128.92Z" transform="translate(-135.52 -39.29)"/><path class="cls-7" d="M264.26,93.73c4.4.49,5.44,3.76,6.94,7.58-1.08,2-1.11,5.08-2.71,6.44-2.57-1.77-5,3.38-6.31-.5-2.14,2.19-3.25-1.62-4.46-2.92-1.13-1.91-.58-4.26,0-6.08.85-1,2.07-1.59,2.23-3.18C261.36,94.77,263.86,96,264.26,93.73Z" transform="translate(-135.52 -39.29)"/><path class="cls-6" d="M262.4,97.29c-.53,1.21-1.21.22-1.51-.39C261.88,96.22,261.41,98.35,262.4,97.29Z" transform="translate(-135.52 -39.29)"/><path class="cls-6" d="M261.86,98.88c-2.06,1.21.37,2.28.35,4.19.09-1.37.24-1.07,1.38-1.44.14,1.45-1.61,1.36,0,2.28-.08-.15,1.82-.52,1-1.81,2,.69-.79,3.79.35,4.18-.45-1.3-1.29-1.45-2.11-2.37-.76-.39-1.15.75-1.83.9.53-1.21.08-1.75-1.28-2.6.15.31.83.54,1.06.24-.38,0-.52-.69-.67-1,.22-.3.15.31.52.31,1.24-1.74-.89-1.45-1.66-1.83.31-.16,1.37.46,2-.6.69-.91-.6-.84-.68-1.37Z" transform="translate(-135.52 -39.29)"/><path class="cls-6" d="M263,98.89c-.22-.46.16-.83-.14-1.07.9,1.46,1.91-1.12,1.74.85.24-1.44,2.29-1.12,2.15-2.18l.9,1.45c-.31.15-.38,0-.69-.24-.46,1,1.51,1.53,1.9.78L268,100.6c0,.38.54-1.21-.45-.92-1.23,1.74,1.43,1.38,1.88,1.92-1.45.9-2.83,2.33-1.62,4-.9-1.45-1.05-1.75-2-3.35.39-1.52,1.43,1.37,1.68-.45l-.68-.61c.22.07.3.23.45.15-.9-.69-.59-2-2-1.84-.08,1.37-.69.91-1.3,2,2.36-1-.51-3-2-3.21C262.7,98.28,261.93,99.42,263,98.89Z" transform="translate(-135.52 -39.29)"/><path class="cls-7" d="M265.9,97.47l-.16.83Z" transform="translate(-135.52 -39.29)"/><polygon class="cls-7" points="126.69 64.53 125.56 63.39 126.02 63.16 126.69 64.53"/><path class="cls-7" d="M164.59,150.26l1.36.85Z" transform="translate(-135.52 -39.29)"/><path class="cls-6" d="M262.58,105c-1,2.2.77-1.52,1.13,1.15-1.36-.47-1.53,1.51-2-.7Z" transform="translate(-135.52 -39.29)"/><path class="cls-7" d="M172,154.19c1,.85-.86,2.88-1.53,1.51C170,154.78,171,153.2,172,154.19Z" transform="translate(-135.52 -39.29)"/><path class="cls-7" d="M319.89,84c1.82.62,4.8-1.41,5.93.11-.69.91-.24,1.83.74,2.29,1.14,0,1.83-1.28,3.05-.74.65,4.41,2.71,2.83,4.59,6.65,1.67.31,2.82-1.58,4-2.71.6.84-.77.75-.85,1.36,4.19-1.49,6.8-5.42,10.92-7.45-.61.68.75,1.91.9,1.83l-6.73,6c.93,8.06,5.46,13.42,11.5,18.78,1.58,1.68,4.57-1.87,4.47,1.4-2.6,3.55-8.43.17-10.21,3.88-.33,4.71-2.12,9.94-3,13.59-1.84,2.41-3.86-3.23-5.33.72.38.76,1.28,1.45,1,2.51-1.59.22-2.78-3-4.7-1.09-.54,1.21,1.51,2.29-.32,3.18-1.83.14-1.12-3-3.41-2.3-3.79-.79-.93,3.11-3,3.93-1-.46-1.51-1.91-1.65-3-1.29-.32-3.79-1.17-5.62-.65a5.85,5.85,0,0,1-.79,3.41c-1.43-1.75-1.71-5-4.13-6.49-2.43-.7-.71,2.81-3.06,1.88-.29-1.37,1-3.34,0-4.71l-3.57-.33c-3.3-6.33-2.41-13-6.63-18.9,1.25-4,.67-8.28.09-12.16,1.74.09,3.19.33,4.34-1.18,0-1.14.16-2.36.18-3.5.83-.6,1.81.24,2.51-.67l.17-2.73c1.9,0,3.79.79,5.32-.34,1.6-.6.78-2.28.94-3.49C318.53,82.79,319.29,83.56,319.89,84Z" transform="translate(-135.52 -39.29)"/><path class="cls-7" d="M156.39,170.19a2.43,2.43,0,0,1-1.91,1.51C154,170.79,155.4,169.73,156.39,170.19Z" transform="translate(-135.52 -39.29)"/><path class="cls-7" d="M293.8,118.41c1.31-1.58,2.35.94,3.57,0,1.43,2.51,5,.94,5.44,4.52,2.57,2.9-2.15,4.09.11,7.14-2.9,1.81-5,6.81-10.22,5-3.05.36-1.95-4.34-5.08-2.24a4.18,4.18,0,0,0,.25-3.34c-.37-.76-2.05-.7-2-1.69.77-1.51,2.38-3.25.56-4.63,1.9,0,2.22-1.65,2-3.25C291.34,122.27,290.85,116.27,293.8,118.41Z" transform="translate(-135.52 -39.29)"/><rect class="cls-6" x="291.07" y="122.04" width="0.17" height="0.85" transform="translate(-159.69 101.61) rotate(-26.16)"/><path class="cls-6" d="M290.41,124.25c2,1.07-.83.6.14,2.2-.36-2.28-.54.83-1.82-.24.24-1.44,1,.08,1.68-.83l-.75-1.9.91.69Z" transform="translate(-135.52 -39.29)"/><polygon class="cls-6" points="159.01 83.31 158.18 83.15 158.64 82.93 159.01 83.31"/><path class="cls-6" d="M298.18,122.7c.15.69-.16.46-.76.38Z" transform="translate(-135.52 -39.29)"/><polygon class="cls-6" points="154.49 88.75 155.41 87.92 154.95 88.91 154.49 88.75"/><polygon class="cls-6" points="156.92 89.83 155.86 89.22 156.77 89.53 156.92 89.83"/><path class="cls-6" d="M292.13,130l.75.39Z" transform="translate(-135.52 -39.29)"/><path class="cls-6" d="M295.55,128.54l-.23,1.06Z" transform="translate(-135.52 -39.29)"/><path class="cls-6" d="M295.77,130.14l.83.53Z" transform="translate(-135.52 -39.29)"/><path class="cls-7" d="M282.9,176c-.69.91-1.16,2.65-2.52,1.81a1.76,1.76,0,0,1-.06-2.82C281.39,174.5,282.91,174.89,282.9,176Z" transform="translate(-135.52 -39.29)"/><path class="cls-7" d="M288.56,182.53c2.48,4.28,8.28,1.05,12.13,3.89,1.66,1.45-1.38,2.57-.18,4.25.92-.45,2.06-.44,2.74-1-.08,1-2.14,2.19-.7,3.57,1.2,1.3,3.4,1.93,5,2.47,1.12,3.81-6.9,8.69.23,10.49-1.37.3-3-1-3.95.05-.77,1.89,4.38,4.29.65,5.55-.69-.23-1.52-.39-1.6.6-.86,2.12,2.86,2.76,1.79,4.42-2.81-.7-5.63.87-7.9-1.42-2.12-.1-2.22,2.79-3.22,3.47-2.66,1.5-3.54-3-6.36-2.17-.86,2.12-2.77,4.39-5.13,5,.4-3-2.72-2.07-4-2.39.87-4.78-5.9-3.54-5.57-7.49-.69.53-1.23,1.74-2.14,1,.24-1.82,3.51-1.72,1.93-4.16-1-.85.1-2.89-1.65-3.36-.76-.39-2,1.35-2.28,0,1.84-2,1.56-5.69,2-8.57.47-1.75,3.12-.21,2.52-2.57-.6-.84-2.2-.62-2.34-2.07,4.05-2.93,10.83-4.94,13.31-10.7A5,5,0,0,1,288.56,182.53Z" transform="translate(-135.52 -39.29)"/><path class="cls-7" d="M268,138.54c1.43,1.38,2.18,2.52,1.86,4.57-.16,1.6-2.21,1.66-1.92,3.41-.9-1.07-2.13.67-3.12.2-1.44-.61-3.18-1.08-3.7-2.91.17-2,0-5.09,2.32-5.69C265.09,137.3,266.52,138.3,268,138.54Z" transform="translate(-135.52 -39.29)"/><path class="cls-6" d="M263.76,141.93a1,1,0,0,1-1.74-.47c1.75-.29-.14-1.83,1.61-2.12A2.46,2.46,0,0,1,263.76,141.93Z" transform="translate(-135.52 -39.29)"/><path class="cls-6" d="M264.69,140v0Z" transform="translate(-135.52 -39.29)"/><path class="cls-6" d="M268.4,142.49l-.84-.53v.37c.31-.15-.52-1.44-.29-2.13C267.65,141,270.38,141.52,268.4,142.49Z" transform="translate(-135.52 -39.29)"/><path class="cls-6" d="M265.18,145.21c-.15-.31.25-3,1.92-2.65-2.89.28,1,1.76,0,3l-.52-1.07c0,2.28-1.91.37-2.82.44.15-.08.23.08.38,0a1.08,1.08,0,0,0-.82-1.3c-.08-.15.3-.53-.23-.45C264.67,142.24,264.05,144.44,265.18,145.21Z" transform="translate(-135.52 -39.29)"/><path class="cls-6" d="M262.83,144.66l-.69.15c.39-.38-.29-1,.4-1.14Z" transform="translate(-135.52 -39.29)"/></g><rect class="cls-3" x="274.85" y="171.63" width="191.69" height="134.89" transform="translate(-172.24 368.86) rotate(-55.36)"/><g class="cls-4"><path class="cls-5" d="M331.61,200.16l.38.26c-1.05-.36-.91,1.05-1.29.79C330.71,200.65,330.94,200.06,331.61,200.16Z" transform="translate(-135.52 -39.29)"/><path class="cls-5" d="M276.59,260.4l1,.7c-.16,1.57-1.89,1.12-2.62,1.36-.63-.44-1.87,0-1.55-1.26C274.05,259.77,275.41,260,276.59,260.4Z" transform="translate(-135.52 -39.29)"/><path class="cls-5" d="M300.45,253.07c-.05-2.08,3.17,1.07,3.22-2.24-.24-.73-1.9-.2-1.58-1.47,3.3-4.78,2.83-12.18,2.72-18.22.66,1.2,2.95,1.11,3.26,2.82.72,2.73-1.78,7.7,2.85,7.73,4.18,1.22,7.69,4.76,9.62,8.7,6.31,1.38,6.58-7.37,13-6.45a3.93,3.93,0,0,1,.79,3.71c-.91,3.46-5.13,4.45-5.23,8.1,1.43.63,3.21.74,4.12,2.11,1.89,4.28,4.87,8.58,6.09,12.21-2,.69-4.28-.54-5.83.62.91,1.38-1.2,3.08.95,4,0,1.66-2.07,1.92-3.35,2.16-.25,2.24,6.86,3.8,3,5.05-.58,1.65-2.11-.71-2.79-.8a3.78,3.78,0,0,0-.06-1.54c-4.92-.42-9-3.08-13.87-3.63-2.23,3.5.51,7.62-.62,11.67-1-.69-.54-3-1.42-4.14l-3-1.87c-3.07,3.09-5.86-.14-8.81,1.17.18-.81,1.3-1.9,1.32-3,1.78-2.3-2.34-2.54-1.53-4.78-1.52-1.05-3.7.24-5.48.12-.88,1.81-3,1.87-3.51,3.72-1.42,1.26-1.16-1.54-2.18-1.69,2.72-2.59,6.79-4.43,8.21-8.1-2.19-1.14,1.73-2-.63-2.86l-2,.27a1.17,1.17,0,0,0-.22-1.83,17.43,17.43,0,0,0-4.21.44c.31-.72,1.34-1.68.81-2.79l-2.58-.85a8,8,0,0,0,6.38-3c-.32-1.15-2.2-.59-2.19-1.14.55,0,1.91.2,2.34-.43-1.44-2.49-4.49-5.34-7.21-5.73.93.28.19-.8.45-1.18C294.33,250.89,297.4,252.64,300.45,253.07Z" transform="translate(-135.52 -39.29)"/><path class="cls-5" d="M344.66,192.05c3.68-1.55,5.93.57,8.78,2.91.05,2.08,1.37,4.48.71,6.26-2.8-.26-2.42,4.84-5.18,2.37-.73,2.67-3.27.16-4.8-.33-1.72-1-2.32-3.1-2.63-4.8.23-1.15.92-2.15.35-3.48C342.84,194.15,345.35,194,344.66,192.05Z" transform="translate(-135.52 -39.29)"/><path class="cls-6" d="M344.77,195.67c.11,1.18-.86.7-1.37.36C343.88,195.06,344.45,196.94,344.77,195.67Z" transform="translate(-135.52 -39.29)"/><path class="cls-6" d="M345,197.16c-1.09,1.85,1.29,1.63,2.11,3.13-.53-1.11-.28-.94.46-1.73.74,1.08-.67,1.77,1,1.8-.13-.09,1.2-1.21,0-1.87,1.91-.35,1,3.33,2.11,3.13-.92-.82-1.65-.57-2.7-.93-.77,0-.57,1.09-1.05,1.51-.11-1.19-.7-1.41-2.14-1.48.25.18.89.06.94-.28-.3.16-.72-.31-1-.48.05-.34.25.17.55,0,.21-1.91-1.34-.75-2.11-.72.18-.25,1.28-.23,1.3-1.33s-.85-.4-1.14-.79Z" transform="translate(-135.52 -39.29)"/><path class="cls-6" d="M345.94,196.66c-.38-.26-.24-.72-.58-.77,1.34.74,1-1.73,1.74-.1-.45-1.24,1.31-1.89.73-2.66l1.34.74c-.17.25-.3.17-.64.12.07,1,1.86.54,1.83-.22l.26,2c.17.3-.1-1.19-.75-.53-.2,1.91,1.73.46,2.32.68-.74,1.35-1.2,3.08.49,3.87-1.34-.74-1.6-.92-3.07-1.75-.36-1.36,1.73.46,1.12-1.08l-.8-.19c.21,0,.34.05.43-.07-1-.15-1.34-1.3-2.42-.55.54,1.11-.14,1-.16,2.12,1.43-1.81-1.7-2.11-2.95-1.67C345.44,196.32,345.33,197.55,345.94,196.66Z" transform="translate(-135.52 -39.29)"/><path class="cls-5" d="M347.59,194.27l.25.73Z" transform="translate(-135.52 -39.29)"/><polygon class="cls-5" points="211.97 161.6 210.57 161.2 210.83 160.82 211.97 161.6"/><path class="cls-5" d="M291.12,280.31l1.45.06Z" transform="translate(-135.52 -39.29)"/><path class="cls-6" d="M348.28,201.63c.17,2.17-.06-1.53,1.39.4-1.27.24-.54,1.86-1.92.36Z" transform="translate(-135.52 -39.29)"/><path class="cls-5" d="M298.68,280.14c1.15.23.6,2.64-.54,1.86C297.39,281.47,297.42,279.82,298.68,280.14Z" transform="translate(-135.52 -39.29)"/><path class="cls-5" d="M384.14,160c1.7-.31,3.15-3.22,4.71-2.52-.15,1,.61,1.54,1.59,1.48.9-.5.88-1.81,2.07-1.92,2.45,3.18,3.38,1,6.53,3.2,1.45-.48,1.53-2.47,1.93-3.87.85.4-.27.93-.06,1.44,2.64-3,3-7.25,5.31-10.65-.18.8,1.43,1.17,1.51,1l-2.67,7.64c4.27,5.93,10.18,8.16,17.29,9.72,2,.63,2.78-3.48,4.13-.86-.48,3.93-6.56,3.83-6.32,7.53,1.8,3.85,2.7,8.75,3.62,12-.38,2.71-4.44-.84-3.87,2.91.63.43,1.65.58,1.93,1.52-1.16.87-3.51-1.13-4.18,1.2.11,1.19,2.19,1.14,1.14,2.65-1.37.91-2.22-1.9-3.69-.32-3.33,1.05.64,2.86-.62,4.41a3.54,3.54,0,0,1-2.61-1.62c-1.15.33-3.49.75-4.7,2a5.24,5.24,0,0,1,.88,3c-1.9-.76-3.56-3.2-6.1-3.29-2.22.52.68,2.52-1.58,2.82-.83-.95-.67-3.07-2.1-3.69l-3,1.31c-5.37-3.53-7.61-9.17-13.52-11.94-.78-3.71-3.11-6.81-5.27-9.61,1.41-.69,2.65-1.14,2.89-2.83-.49-.9-.9-1.93-1.39-2.83.39-.84,1.53-.61,1.68-1.63L378.64,166c1.5-.83,3.33-1,4-2.62,1-1.16-.39-2.12-.8-3.15C382.53,159.6,383.46,159.87,384.14,160Z" transform="translate(-135.52 -39.29)"/><path class="cls-5" d="M293.44,299.58a2.22,2.22,0,0,1-.85,2C291.84,301.09,292.46,299.65,293.44,299.58Z" transform="translate(-135.52 -39.29)"/><path class="cls-5" d="M378.74,198.48c.33-1.82,2.25-.3,2.79-1.61,2.22,1.36,4.35-1.46,6.26,1.17,3.3,1.16.1,4.16,3.22,5.57-1.49,2.7-.93,7.55-5.83,8.44-2.23,1.62-3.44-2.56-5,.47a3.75,3.75,0,0,0-1.27-2.74c-.63-.43-1.91.35-2.28-.46-.06-1.53.44-3.6-1.59-3.89,1.5-.83,1-2.28.14-3.44C378.5,202.6,375.48,198.09,378.74,198.48Z" transform="translate(-135.52 -39.29)"/><rect class="cls-6" x="378.36" y="202.45" width="0.15" height="0.77" transform="translate(-139.08 359.58) rotate(-55.36)"/><path class="cls-6" d="M378.64,204.56c2.08-.06-.4.83,1.07,1.67-1.28-1.64,0,.89-1.54.61-.44-1.24.82-.37,1-1.39l-1.42-1.17,1,.15Z" transform="translate(-135.52 -39.29)"/><polygon class="cls-6" points="245.63 162.16 244.91 162.41 245.17 162.03 245.63 162.16"/><path class="cls-6" d="M384.07,199.93c.41.47.07.43-.44.63Z" transform="translate(-135.52 -39.29)"/><polygon class="cls-6" points="244.47 168.43 244.83 167.37 244.89 168.35 244.47 168.43"/><polygon class="cls-6" points="246.85 168.21 245.75 168.19 246.6 168.04 246.85 168.21"/><path class="cls-6" d="M382.53,208.35l.76,0Z" transform="translate(-135.52 -39.29)"/><path class="cls-6" d="M384.56,205.67l.29.94Z" transform="translate(-135.52 -39.29)"/><path class="cls-6" d="M385.44,206.83l.89.06Z" transform="translate(-135.52 -39.29)"/><path class="cls-5" d="M395.49,248.58c-.15,1,.25,2.59-1.19,2.53a1.58,1.58,0,0,1-1.28-2.19C393.63,248,395,247.68,395.49,248.58Z" transform="translate(-135.52 -39.29)"/><path class="cls-5" d="M402.79,251.2c3.83,2.28,7-2.81,11.25-2.27,1.95.41,0,2.63,1.73,3.42.52-.75,1.42-1.25,1.73-2,.37.81-.72,2.66,1,3.11,1.52.5,3.52,0,5-.25,2.55,2.51-1.6,9.87,4.79,8.15-.94.83-2.76.5-3.08,1.77.22,1.83,5.32,1.45,2.95,4.08-.64.12-1.37.37-1,1.18.26,2,3.47.91,3.35,2.69-2.51.68-4,3.16-6.83,2.35-1.72.86-.52,3.17-1,4.14-1.43,2.36-4.1-.79-6,1.09a7.52,7.52,0,0,1-1.84,6.17c-1-2.56-3.05-.43-4.21-.11-1.41-4.14-6.19-.19-7.67-3.44-.31.72-.2,1.91-1.22,1.76-.61-1.54,2-2.89-.31-4.12-1.14-.23-1.19-2.32-2.77-1.92-.76,0-1,1.94-1.8,1,.55-2.41-1.27-5.16-2.17-7.63-.4-1.58,2.36-1.54.86-3.13-.84-.4-2,.47-2.75-.6,1.9-4.09,6.34-8.64,5.76-14.26A4.47,4.47,0,0,1,402.79,251.2Z" transform="translate(-135.52 -39.29)"/><path class="cls-5" d="M367.27,225.66c1.73.45,2.82,1,3.47,2.78.58,1.32-1,2.27,0,3.52-1.18-.45-1.38,1.46-2.36,1.53-1.41.15-3,.55-4.2-.66-.73-1.63-2.27-4-.67-5.49C364.46,226,366,226.11,367.27,225.66Z" transform="translate(-135.52 -39.29)"/><path class="cls-6" d="M365.45,230.17a.87.87,0,0,1-1.58.4c1.25-1-.91-1.37.34-2.37A2.21,2.21,0,0,1,365.45,230.17Z" transform="translate(-135.52 -39.29)"/><path class="cls-6" d="M365.31,228.22l.33.6Z" transform="translate(-135.52 -39.29)"/><path class="cls-6" d="M369.34,228.58l-.89-.06.16.3c.18-.25-1-.9-1.16-1.55C368.08,227.71,370.47,226.94,369.34,228.58Z" transform="translate(-135.52 -39.29)"/><path class="cls-6" d="M368,232.13c-.25-.18-1.11-2.44.34-2.93-2.14,1.49,1.6.92,1.32,2.4l-.88-.61c1,1.8-1.33,1.13-2,1.58.09-.12.21,0,.3-.16a1,1,0,0,0-1.22-.66c-.13-.09,0-.55-.38-.26C366.3,230,366.78,232,368,232.13Z" transform="translate(-135.52 -39.29)"/><path class="cls-6" d="M365.92,232.73l-.48.42c.14-.47-.67-.65-.19-1.07Z" transform="translate(-135.52 -39.29)"/></g></g></svg>