<svg xmlns="http://www.w3.org/2000/svg" viewBox="0 0 285.84 335.96"><defs><style>.cls-1,.cls-2{fill:none;}.cls-1{stroke:#8a2d4f;stroke-miterlimit:10;stroke-width:14px;}.cls-3{opacity:0.8;}.cls-4{fill:#c6711b;}.cls-5{fill:#fff;opacity:0.2;}.cls-6{fill:#e5ad00;}</style></defs><g id="Sobre"><path class="cls-1" d="M221.12,284.57,225.73,268c1.65-6,3.23-11.91,5-17.83a6.83,6.83,0,0,0-.72-5.74,80.52,80.52,0,0,1-10.55-43c1.15-33.58,22-62.83,53.29-74.37a82.08,82.08,0,1,1,52.87,155.37C304,289.18,283,287.1,262.93,276.6a8.43,8.43,0,0,0-6.46-.79c-11.15,2.89-22.32,5.63-33.49,8.43C222.49,284.36,222,284.42,221.12,284.57Zm61.26-87.79c1.38-1.66,2.79-3.27,4.12-4.95,3.14-4,4.41-8.21,1.73-13a24.55,24.55,0,0,1-1.15-2.68c-1.83-4.38-3.61-8.78-5.49-13.14-1.7-3.95-4.51-6.29-9.06-5.95-1.22.09-2.46,0-3.69,0a11.45,11.45,0,0,0-8.61,3.45c-8.57,8.46-11.57,18.58-8.69,30.35,1.71,7,5.46,13,9.62,18.8,13.7,19.11,30.79,33.53,53.84,39.86,9.66,2.66,18.72,2,27.34-3.69,7.1-4.68,9.35-11.42,9.41-19.41a6.43,6.43,0,0,0-3.66-6.21c-6.4-3.13-12.84-6.18-19.37-9-4.32-1.89-7.1-.87-10,2.9-2.1,2.72-4.3,5.37-6.45,8C299.21,217.2,289.44,208.66,282.38,196.78Z" transform="translate(-161.28 -36.62)"/></g><g id="Manchas_flor" data-name="Manchas flor"><rect class="cls-2" x="342.54" y="118.34" width="76.92" height="109.31" transform="translate(-167.93 293.92) rotate(-46.54)"/><g class="cls-3"><path class="cls-4" d="M406.35,154.37l-.18.19c.29-.56-.51-.6-.33-.79C406.15,153.82,406.46,154,406.35,154.37Z" transform="translate(-161.28 -36.62)"/><path class="cls-4" d="M377.21,118.1l-.48.51c-.87-.23-.46-1.16-.54-1.59.3-.32.16-1.06.85-.77C377.79,116.73,377.57,117.47,377.21,118.1Z" transform="translate(-161.28 -36.62)"/><path class="cls-4" d="M379.26,132.19c1.17.15-.88,1.69,1,2,.43-.07.28-1.06,1-.77,2.4,2.28,6.61,2.67,10,3.13-.73.27-.88,1.57-1.87,1.59-1.6.17-4.18-1.68-4.61.93a9.41,9.41,0,0,1-5.74,4.66c-1.33,3.43,3.58,4.35,2.5,7.9a2.25,2.25,0,0,1-2.16.12c-1.87-.81-2.06-3.28-4.11-3.65-.48.75-.7,1.74-1.55,2.14-2.58.68-5.26,2-7.41,2.36-.22-1.17.68-2.37.16-3.34-.86.39-1.63-1-2.34.19-.93-.17-.9-1.34-.93-2.08-1.24-.34-2.74,3.53-3.11,1.26-.88-.47.59-1.13.7-1.5a2.36,2.36,0,0,0,.87.1c.66-2.74,2.52-4.83,3.26-7.5-1.78-1.56-4.34-.38-6.53-1.37.48-.51,1.73-.05,2.46-.44l1.32-1.52c-1.47-2,.59-3.28.11-5.06.44.17.95.9,1.57,1,1.15,1.21,1.64-1.09,2.83-.44.72-.76.19-2.11.41-3.1-.94-.65-.79-1.83-1.79-2.3-.58-.91,1-.52,1.15-1.08,1.21,1.76,1.9,4.21,3.84,5.33.84-1.13,1,1.15,1.67-.11l0-1.17c.32.3.69.42,1.05,0a10.77,10.77,0,0,0,.12-2.42c.38.24.83.91,1.5.7l.7-1.37a4.6,4.6,0,0,0,1.16,3.86c.67-.08.52-1.19.83-1.14-.05.31-.28,1.06,0,1.36,1.53-.6,3.4-2.07,3.86-3.56-.24.5.43.17.62.35C381,128.93,379.77,130.51,379.26,132.19Z" transform="translate(-161.28 -36.62)"/><path class="cls-4" d="M409.77,162.43c.56,2.21-.83,3.3-2.4,4.7-1.18-.15-2.65.38-3.59-.15.39-1.56-2.52-1.79-.88-3.13-1.44-.64.19-1.86.6-2.67a3.83,3.83,0,0,1,2.94-1.07c.62.23,1.13.71,1.93.51C408.75,161.23,408.61,162.65,409.77,162.43Z" transform="translate(-161.28 -36.62)"/><path class="cls-5" d="M407.73,162.18c-.68,0-.32-.55-.08-.8C408.15,161.73,407,161.89,407.73,162.18Z" transform="translate(-161.28 -36.62)"/><path class="cls-5" d="M406.87,162.2c-.95-.78-1,.59-2,.92.68-.2.56-.08.94.41-.67.32-.94-.54-1.1.4.06-.07.58.78,1.05.15,0,1.11-2,.3-1.95.92.55-.45.47-.88.77-1.44.05-.43-.57-.42-.76-.72.68,0,.85-.27,1-1.08-.12.13-.11.5.07.56-.06-.19.24-.38.36-.51.19.06-.12.13-.05.31,1.06.28.54-.69.59-1.13.12.12,0,.75.63.85s.3-.44.55-.57Z" transform="translate(-161.28 -36.62)"/><path class="cls-5" d="M407.07,162.75c.18-.19.43-.07.48-.26-.53.7.89.72-.09,1,.73-.14,1,.9,1.43.64l-.53.7c-.13-.12-.07-.19,0-.37-.56,0-.47,1,0,1.05l-1.17,0c-.18.07.68,0,.36-.38-1.06-.28-.41.94-.59,1.25-.69-.54-1.63-1-2.22-.06.54-.7.66-.83,1.25-1.58.81-.09-.4.93.52.72l.17-.43c0,.12-.06.19,0,.25.17-.57.84-.65.52-1.32-.68.21-.56-.17-1.18-.27.89,1,1.34-.78,1.19-1.52C407.31,162.5,406.62,162.33,407.07,162.75Z" transform="translate(-161.28 -36.62)"/><path class="cls-4" d="M408.27,163.89l-.43.08Z" transform="translate(-161.28 -36.62)"/><polygon class="cls-4" points="243.26 126.64 243.61 125.88 243.81 126.07 243.26 126.64"/><path class="cls-4" d="M364.72,124.55l-.16.81Z" transform="translate(-161.28 -36.62)"/><path class="cls-5" d="M404.06,163.64c-1.23-.09.87.1-.35.75,0-.74-1-.47,0-1.11Z" transform="translate(-161.28 -36.62)"/><path class="cls-4" d="M364.16,128.83c-.23.62-1.54.1-1-.47C363.52,128,364.45,128.14,364.16,128.83Z" transform="translate(-161.28 -36.62)"/><path class="cls-4" d="M424.4,187.48c0,1,1.54,2.06,1,2.88-.56-.17-.92.21-1,.77.2.55.94.65.9,1.33-2,1.11-.88,1.82-2.38,3.4.15.86,1.27,1.08,2,1.43-.3.44-.5-.24-.81-.16,1.47,1.75,3.83,2.3,5.54,3.92-.44-.17-.79.7-.72.76l-4.07-2.17c-3.72,1.89-5.49,5-7,8.89-.53,1.07,1.72,1.87.12,2.41-2.17-.62-1.58-4-3.69-4.23a45.17,45.17,0,0,1-7.08,1c-1.49-.46.87-2.43-1.3-2.44-.3.32-.47.88-1,.95-.39-.73.94-1.87-.31-2.46-.68,0-.84,1.14-1.6.42-.39-.86,1.27-1.09.5-2.05-.3-2-1.66.1-2.43-.74a2,2,0,0,1,1.14-1.33,6.18,6.18,0,0,0-.69-2.82,3,3,0,0,1-1.79.23c.59-1,2.12-1.72,2.39-3.15-.1-1.3-1.48.16-1.45-1.14.61-.38,1.79-.11,2.26-.86l-.48-1.78c2.46-2.72,5.84-3.49,7.91-6.57a14.16,14.16,0,0,0,5.88-2.13c.27.85.41,1.59,1.34,1.87.55-.2,1.17-.34,1.72-.54.44.3.21.92.77,1.1l1.34-.41c.34.92.31,2,1.12,2.5.58.66,1.24,0,1.85-.17C424.75,186.61,424.52,187.11,424.4,187.48Z" transform="translate(-161.28 -36.62)"/><path class="cls-4" d="M353.66,124.17a1.28,1.28,0,0,1-1.07-.65C353,123.14,353.71,123.61,353.66,124.17Z" transform="translate(-161.28 -36.62)"/><path class="cls-4" d="M403.17,181.08c1,.34,0,1.29.67,1.71-1,1.13.44,2.58-1.21,3.43-.94,1.75-2.35-.31-3.42,1.32-1.39-1.07-4.17-1.18-4.25-4-.71-1.4,1.75-1.71.17-2.85a2.17,2.17,0,0,0,1.66-.47c.3-.32,0-1.11.46-1.25.87.1,2,.56,2.33-.56.33.92,1.2.78,1.93.38C400.88,180.58,403.68,179.27,403.17,181.08Z" transform="translate(-161.28 -36.62)"/><rect class="cls-5" x="400.53" y="180.48" width="0.44" height="0.09" transform="translate(-167.23 310.6) rotate(-46.54)"/><path class="cls-5" d="M399.76,180.49c-.15,1.18-.44-.3-1,.46,1-.58-.49-.11-.21-.92.74-.15.14.49.7.66l.78-.7-.17.56Z" transform="translate(-161.28 -36.62)"/><polygon class="cls-5" points="240 145.56 239.93 145.13 240.12 145.31 240 145.56"/><path class="cls-5" d="M401.89,184c-.3.19-.25,0-.32-.3Z" transform="translate(-161.28 -36.62)"/><polygon class="cls-5" points="236.58 144.35 237.14 144.65 236.58 144.6 236.58 144.35"/><polygon class="cls-5" points="236.49 145.72 236.6 145.1 236.61 145.59 236.49 145.72"/><path class="cls-5" d="M397.28,182.35l0,.43Z" transform="translate(-161.28 -36.62)"/><path class="cls-5" d="M398.61,183.73l-.55.08Z" transform="translate(-161.28 -36.62)"/><path class="cls-5" d="M397.88,184.12l-.11.5Z" transform="translate(-161.28 -36.62)"/><path class="cls-4" d="M373.48,186.13c-.56-.17-1.49-.08-1.32-.89a.9.9,0,0,1,1.34-.53C374,185.13,374,185.93,373.48,186.13Z" transform="translate(-161.28 -36.62)"/><path class="cls-4" d="M371.36,190c-1.62,2,1,4.17.3,6.54-.4,1.06-1.49-.21-2.08.67.38.36.58.91,1,1.15-.5.14-1.44-.64-1.85.3a6.22,6.22,0,0,0-.29,2.84c-1.64,1.22-5.42-1.76-5,2-.39-.61-.05-1.6-.74-1.89-1,0-1.28,2.87-2.55,1.3,0-.37-.09-.8-.58-.66-1.17,0-.81,1.87-1.81,1.65-.16-1.48-1.42-2.55-.72-4.06-.34-1-1.75-.57-2.25-.92-1.2-1,.8-2.25-.09-3.46a4.29,4.29,0,0,1-3.32-1.58c1.54-.35.51-1.68.43-2.36,2.46-.43.65-3.47,2.61-4-.38-.24-1.06-.28-.89-.84.93-.21,1.46,1.38,2.36.18.23-.62,1.4-.46,1.32-1.39,0-.43-1-.71-.4-1.1,1.31.52,3-.27,4.49-.55.92-.09.66,1.46,1.69.75.3-.44-.1-1.17.58-1.49,2.13,1.42,4.31,4.33,7.53,4.49A2.55,2.55,0,0,1,371.36,190Z" transform="translate(-161.28 -36.62)"/><path class="cls-4" d="M388.86,172.24A2.39,2.39,0,0,1,387,174c-.79.21-1.19-.77-2-.31.35-.63-.7-.91-.66-1.47,0-.8,0-1.73.74-2.3,1-.28,2.45-.93,3.16.1C388.94,170.63,388.72,171.5,388.86,172.24Z" transform="translate(-161.28 -36.62)"/><path class="cls-5" d="M386.48,170.82a.5.5,0,0,1-.09-.93c.45.79.86-.39,1.31.4A1.29,1.29,0,0,1,386.48,170.82Z" transform="translate(-161.28 -36.62)"/><path class="cls-5" d="M387.59,170.91l-.37.13Z" transform="translate(-161.28 -36.62)"/><path class="cls-5" d="M387,173.15l.11-.5-.18.07c.13.12.6-.51,1-.52C387.63,172.52,387.86,173.93,387,173.15Z" transform="translate(-161.28 -36.62)"/><path class="cls-5" d="M385.15,172.09c.12-.13,1.47-.41,1.62.45-.65-1.34-.66.82-1.47.53l.42-.44c-1.1.4-.51-.85-.71-1.28.06.06,0,.12.07.18a.55.55,0,0,0,.47-.63c.06-.06.31.06.18-.19C386.49,171.31,385.32,171.4,385.15,172.09Z" transform="translate(-161.28 -36.62)"/><path class="cls-5" d="M385,170.86l-.2-.31c.25.12.43-.32.62,0Z" transform="translate(-161.28 -36.62)"/></g><rect class="cls-2" x="185.96" y="246.59" width="141.86" height="99.82" transform="translate(-265.69 107.01) rotate(-26.16)"/><g class="cls-3"><path class="cls-4" d="M245.69,257.25l.15.31c-.55-.62-1,.34-1.11,0C244.93,257.24,245.29,256.94,245.69,257.25Z" transform="translate(-161.28 -36.62)"/><path class="cls-4" d="M188.4,276.3l.4.82c-.67,1-1.62,0-2.18-.07-.25-.51-1.21-.66-.55-1.37C187,275,187.79,275.59,188.4,276.3Z" transform="translate(-161.28 -36.62)"/><path class="cls-4" d="M206.46,280.18c.72-1.36,1.66,1.84,2.89-.28.11-.56-1.16-.82-.49-1.53,3.86-1.89,6.23-6.84,8.33-10.78,0,1,1.51,1.78,1.09,3-.51,2-3.93,4.33-.95,6a12.24,12.24,0,0,1,3.08,9.09c3.57,3.17,6.91-2.38,10.74.54a2.92,2.92,0,0,1-.83,2.67c-1.84,1.92-4.92,1-6.31,3.35.7.92,1.81,1.64,1.91,2.86-.33,3.44.05,7.29-.48,10.08-1.52-.27-2.57-1.9-4-1.7.09,1.22-1.89,1.55-.83,2.93-.62,1.06-2,.49-2.94.18-1,1.36,3,4.94.12,4.36-1,.86-1.11-1.22-1.51-1.53a2.76,2.76,0,0,0,.51-1c-3-2.05-4.72-5.25-7.65-7.35-2.7,1.45-2.42,5.1-4.61,7.31-.4-.81.72-2.12.58-3.18l-1.25-2.29c-3.1.89-3.74-2.21-6.12-2.43.41-.45,1.53-.75,1.94-1.45,2-.85-.59-2.49.74-3.65-.6-1.22-2.48-1.18-3.59-1.9-1.22.86-2.59.14-3.61,1.14-1.37.3-.19-1.42-.79-1.88,2.69-.69,6-.41,8.22-2.27-1-1.53,1.83-.65.63-2.08l-1.42-.56a.87.87,0,0,0,.52-1.27,13.5,13.5,0,0,0-2.88-1.23c.46-.35,1.47-.6,1.53-1.51l-1.36-1.48a6,6,0,0,0,5.22.34c.2-.86-1.21-1.17-1-1.53.36.21,1.16.82,1.67.57,0-2.13-1-5.07-2.59-6.3.5.51.41-.45.72-.6C203.29,276.56,204.65,278.8,206.46,280.18Z" transform="translate(-161.28 -36.62)"/><path class="cls-4" d="M257.05,256.72c2.93.33,3.63,2.51,4.62,5-.71,1.37-.73,3.39-1.8,4.3-1.72-1.18-3.31,2.25-4.2-.34-1.43,1.46-2.17-1.08-3-1.94a5,5,0,0,1,0-4.06c.56-.65,1.37-1.05,1.48-2.11C255.12,257.42,256.78,258.24,257.05,256.72Z" transform="translate(-161.28 -36.62)"/><path class="cls-5" d="M255.81,259.1c-.35.8-.81.14-1-.26C255.46,258.39,255.15,259.8,255.81,259.1Z" transform="translate(-161.28 -36.62)"/><path class="cls-5" d="M255.45,260.16c-1.37.8.25,1.52.24,2.79.05-.91.15-.71.92-1,.09,1-1.08.91,0,1.52,0-.1,1.22-.35.67-1.21,1.37.46-.52,2.53.24,2.79-.3-.87-.86-1-1.41-1.58-.51-.26-.76.5-1.22.6.36-.81.06-1.17-.85-1.73.1.2.55.36.71.15-.26,0-.35-.46-.45-.66.15-.2.1.2.35.21.82-1.16-.6-1-1.11-1.23.21-.1.91.31,1.32-.39s-.4-.56-.45-.92Z" transform="translate(-161.28 -36.62)"/><path class="cls-5" d="M256.21,260.16c-.15-.3.11-.55-.09-.71.6,1,1.27-.75,1.16.57.16-1,1.52-.75,1.43-1.46l.6,1c-.2.1-.25,0-.46-.16-.31.66,1,1,1.27.52l-.57,1.41c0,.26.36-.81-.3-.61-.82,1.16,1,.92,1.26,1.28-1,.6-1.89,1.55-1.08,2.68-.61-1-.71-1.18-1.36-2.24.26-1,1,.91,1.12-.3l-.46-.41c.16.05.21.16.31.11-.61-.47-.4-1.32-1.36-1.23-.06.91-.46.6-.87,1.31,1.57-.65-.34-2-1.3-2.14C256,259.76,255.5,260.51,256.21,260.16Z" transform="translate(-161.28 -36.62)"/><path class="cls-4" d="M258.14,259.21l-.1.56Z" transform="translate(-161.28 -36.62)"/><polygon class="cls-4" points="94.4 226.84 93.64 226.07 93.95 225.92 94.4 226.84"/><path class="cls-4" d="M190.6,294.41l.91.57Z" transform="translate(-161.28 -36.62)"/><path class="cls-5" d="M255.93,264.21c-.67,1.47.52-1,.76.77-.91-.31-1,1-1.37-.46Z" transform="translate(-161.28 -36.62)"/><path class="cls-4" d="M195.55,297c.65.56-.57,1.92-1,1C194.23,297.43,194.84,296.37,195.55,297Z" transform="translate(-161.28 -36.62)"/><path class="cls-4" d="M294.14,250.25c1.21.41,3.19-.94,3.95.07-.46.61-.16,1.22.49,1.53.76,0,1.23-.85,2-.49.43,2.94,1.81,1.88,3.06,4.43,1.11.21,1.88-1,2.64-1.81.41.56-.51.5-.56.91,2.79-1,4.53-3.62,7.28-5-.41.46.5,1.27.6,1.22l-4.49,4c.62,5.37,3.64,8.94,7.67,12.52,1.05,1.12,3-1.25,3,.93-1.74,2.37-5.62.11-6.81,2.59-.22,3.14-1.41,6.62-2,9-1.23,1.61-2.57-2.14-3.55.48.25.51.85,1,.7,1.68-1.07.15-1.86-2-3.14-.73-.36.81,1,1.53-.21,2.13-1.22.09-.75-2-2.27-1.54-2.53-.52-.63,2.07-2,2.62a2.63,2.63,0,0,1-1.1-2c-.86-.21-2.53-.78-3.75-.43a3.84,3.84,0,0,1-.52,2.27c-1-1.17-1.14-3.35-2.76-4.32-1.62-.47-.47,1.87-2,1.25-.2-.92.67-2.23,0-3.14l-2.38-.22c-2.2-4.23-1.61-8.68-4.42-12.6.83-2.68.44-5.52,0-8.11,1.17.06,2.13.22,2.9-.79,0-.76.11-1.57.12-2.33.56-.4,1.21.16,1.67-.44l.12-1.83c1.26,0,2.53.53,3.55-.23,1.06-.39.51-1.51.62-2.32C293.23,249.43,293.74,249.94,294.14,250.25Z" transform="translate(-161.28 -36.62)"/><path class="cls-4" d="M185.14,307.7a1.63,1.63,0,0,1-1.28,1C183.56,308.09,184.48,307.39,185.14,307.7Z" transform="translate(-161.28 -36.62)"/><path class="cls-4" d="M276.74,273.18c.87-1.06,1.57.62,2.39,0,.95,1.67,3.34.63,3.62,3,1.71,1.94-1.44,2.73.07,4.76-1.93,1.21-3.32,4.54-6.81,3.35-2,.24-1.3-2.9-3.39-1.49a2.78,2.78,0,0,0,.17-2.23c-.25-.51-1.36-.47-1.31-1.12.52-1,1.59-2.17.38-3.09,1.26,0,1.48-1.11,1.33-2.17C275.1,275.75,274.78,271.75,276.74,273.18Z" transform="translate(-161.28 -36.62)"/><rect class="cls-5" x="274.92" y="275.6" width="0.11" height="0.57" transform="translate(-254.74 112.87) rotate(-26.16)"/><path class="cls-5" d="M274.49,277.07c1.36.71-.56.4.09,1.47-.24-1.52-.36.55-1.22-.17.16-.95.66.06,1.12-.55l-.49-1.27.6.47Z" transform="translate(-161.28 -36.62)"/><polygon class="cls-5" points="115.95 239.35 115.39 239.25 115.7 239.1 115.95 239.35"/><path class="cls-5" d="M279.66,276c.1.45-.1.3-.5.25Z" transform="translate(-161.28 -36.62)"/><polygon class="cls-5" points="112.93 242.98 113.55 242.43 113.24 243.08 112.93 242.98"/><polygon class="cls-5" points="114.55 243.7 113.84 243.29 114.45 243.5 114.55 243.7"/><path class="cls-5" d="M275.63,280.92l.5.26Z" transform="translate(-161.28 -36.62)"/><path class="cls-5" d="M277.91,279.93l-.15.71Z" transform="translate(-161.28 -36.62)"/><path class="cls-5" d="M278.06,281l.55.36Z" transform="translate(-161.28 -36.62)"/><path class="cls-4" d="M269.48,311.59c-.46.6-.77,1.77-1.68,1.2a1.16,1.16,0,0,1,0-1.87C268.47,310.57,269.49,310.83,269.48,311.59Z" transform="translate(-161.28 -36.62)"/><path class="cls-4" d="M273.25,315.92c1.65,2.85,5.52.7,8.09,2.59,1.11,1-.93,1.72-.12,2.84.61-.3,1.37-.29,1.83-.64-.06.65-1.43,1.46-.48,2.37a8.25,8.25,0,0,0,3.34,1.65c.74,2.54-4.61,5.79.15,7-.91.2-2-.67-2.64,0-.51,1.26,2.92,2.85.44,3.7-.46-.16-1-.26-1.07.4-.57,1.41,1.91,1.83,1.19,2.94-1.87-.47-3.75.58-5.26-.95-1.42-.06-1.48,1.87-2.15,2.32-1.78,1-2.36-2-4.24-1.45a5.54,5.54,0,0,1-3.42,3.32c.27-2-1.82-1.38-2.68-1.59.58-3.19-3.93-2.36-3.71-5-.46.35-.82,1.16-1.42.7.16-1.22,2.34-1.15,1.28-2.78-.65-.56.07-1.92-1.1-2.24-.5-.25-1.32.91-1.52,0,1.23-1.36,1.05-3.79,1.36-5.71.31-1.17,2.08-.14,1.69-1.72-.4-.56-1.47-.41-1.57-1.37,2.71-2,7.22-3.3,8.87-7.14A3.34,3.34,0,0,1,273.25,315.92Z" transform="translate(-161.28 -36.62)"/><path class="cls-4" d="M259.52,286.59a3.13,3.13,0,0,1,1.25,3.05c-.11,1.07-1.48,1.11-1.29,2.27-.6-.71-1.42.45-2.07.14-1-.41-2.13-.72-2.47-1.94.11-1.32,0-3.4,1.54-3.79C257.6,285.77,258.56,286.44,259.52,286.59Z" transform="translate(-161.28 -36.62)"/><path class="cls-5" d="M256.72,288.85a.64.64,0,0,1-1.16-.31c1.16-.19-.1-1.21,1.07-1.41A1.65,1.65,0,0,1,256.72,288.85Z" transform="translate(-161.28 -36.62)"/><path class="cls-5" d="M257.34,287.54v0Z" transform="translate(-161.28 -36.62)"/><path class="cls-5" d="M259.81,289.23l-.56-.36v.26c.2-.1-.35-1-.19-1.42C259.31,288.21,261.13,288.58,259.81,289.23Z" transform="translate(-161.28 -36.62)"/><path class="cls-5" d="M257.67,291c-.1-.2.16-2,1.28-1.76-1.93.19.7,1.17,0,2l-.35-.71c0,1.52-1.27.25-1.87.29.1-.05.15.05.25,0a.72.72,0,0,0-.55-.86c-.05-.1.2-.35-.15-.31C257.33,289.06,256.91,290.53,257.67,291Z" transform="translate(-161.28 -36.62)"/><path class="cls-5" d="M256.1,290.67l-.46.1c.26-.25-.2-.66.26-.75Z" transform="translate(-161.28 -36.62)"/></g><rect class="cls-2" x="175.41" y="86.36" width="191.69" height="134.89" transform="translate(-170.77 252.92) rotate(-55.36)"/><g class="cls-3"><path class="cls-6" d="M232.17,114.89l.37.26c-1-.36-.9,1-1.28.79C231.27,115.38,231.49,114.79,232.17,114.89Z" transform="translate(-161.28 -36.62)"/><path class="cls-6" d="M177.15,175.13l1,.7c-.15,1.57-1.88,1.12-2.61,1.36-.63-.44-1.87,0-1.55-1.26C174.61,174.5,176,174.69,177.15,175.13Z" transform="translate(-161.28 -36.62)"/><path class="cls-6" d="M201,167.8c0-2.08,3.17,1.07,3.22-2.24-.24-.73-1.91-.2-1.59-1.47,3.31-4.78,2.84-12.18,2.73-18.22.65,1.2,2.95,1.11,3.26,2.82.72,2.73-1.78,7.7,2.85,7.73,4.18,1.22,7.69,4.76,9.62,8.7,6.3,1.38,6.58-7.37,13-6.45a3.92,3.92,0,0,1,.78,3.71c-.91,3.46-5.12,4.45-5.23,8.1,1.44.63,3.22.74,4.13,2.11,1.88,4.28,4.87,8.58,6.08,12.21-2,.69-4.28-.54-5.83.62.92,1.38-1.19,3.08,1,4,0,1.66-2.07,1.92-3.35,2.16-.25,2.24,6.86,3.8,3,5-.57,1.65-2.11-.71-2.79-.81a3.74,3.74,0,0,0,0-1.53c-4.92-.42-9-3.08-13.87-3.63-2.23,3.49.51,7.62-.62,11.67-1-.69-.55-3-1.42-4.14l-3-1.87c-3.06,3.09-5.85-.14-8.81,1.17.19-.81,1.31-1.9,1.33-3,1.78-2.3-2.34-2.54-1.53-4.78-1.52-1.05-3.71.24-5.48.12-.89,1.81-3,1.87-3.51,3.72-1.42,1.26-1.16-1.54-2.18-1.69,2.72-2.59,6.79-4.43,8.21-8.1-2.2-1.14,1.73-2-.64-2.86l-2,.26a1.16,1.16,0,0,0-.22-1.82,17.56,17.56,0,0,0-4.22.44c.31-.72,1.35-1.68.82-2.79l-2.58-.85a8.06,8.06,0,0,0,6.38-3c-.32-1.15-2.2-.59-2.19-1.14.55,0,1.91.2,2.34-.43-1.44-2.49-4.5-5.34-7.21-5.73.93.27.18-.8.45-1.18C194.89,165.62,198,167.37,201,167.8Z" transform="translate(-161.28 -36.62)"/><path class="cls-6" d="M245.21,106.78c3.68-1.55,5.94.57,8.79,2.91.05,2.08,1.37,4.48.7,6.26-2.8-.26-2.41,4.84-5.18,2.37-.72,2.67-3.27.16-4.79-.33-1.72-1-2.33-3.1-2.64-4.8.23-1.15.93-2.15.36-3.48C243.4,108.88,245.9,108.75,245.21,106.78Z" transform="translate(-161.28 -36.62)"/><path class="cls-5" d="M245.32,110.4c.11,1.18-.86.7-1.36.36C244.44,109.79,245,111.67,245.32,110.4Z" transform="translate(-161.28 -36.62)"/><path class="cls-5" d="M245.6,111.89c-1.1,1.85,1.29,1.63,2.11,3.13-.53-1.11-.28-.94.45-1.73.75,1.08-.66,1.77,1,1.8-.12-.09,1.21-1.21,0-1.87,1.92-.35,1.05,3.33,2.12,3.13-.93-.82-1.65-.57-2.71-.93-.76,0-.57,1.09-1,1.51-.11-1.19-.7-1.41-2.14-1.48.25.18.89.06.94-.28-.3.16-.72-.31-1-.49,0-.33.25.18.55,0,.2-1.91-1.35-.75-2.11-.72.17-.25,1.28-.23,1.29-1.34s-.84-.39-1.13-.78Z" transform="translate(-161.28 -36.62)"/><path class="cls-5" d="M246.5,111.39c-.38-.26-.25-.72-.59-.77,1.35.74,1-1.73,1.75-.1-.45-1.24,1.3-1.89.72-2.66l1.35.74c-.17.25-.3.17-.64.12.07,1,1.86.54,1.83-.22l.26,2c.17.3-.1-1.19-.75-.53-.21,1.91,1.73.46,2.32.68-.74,1.35-1.2,3.08.49,3.87-1.35-.74-1.6-.92-3.07-1.75-.36-1.36,1.73.46,1.12-1.08l-.81-.19c.22,0,.35,0,.43-.07-1-.15-1.34-1.3-2.41-.55.53,1.11-.14,1-.16,2.12,1.43-1.81-1.71-2.11-3-1.67C246,111,245.89,112.28,246.5,111.39Z" transform="translate(-161.28 -36.62)"/><path class="cls-6" d="M248.15,109l.24.73Z" transform="translate(-161.28 -36.62)"/><polygon class="cls-6" points="86.76 79.01 85.36 78.6 85.63 78.22 86.76 79.01"/><path class="cls-6" d="M191.68,195l1.44.06Z" transform="translate(-161.28 -36.62)"/><path class="cls-5" d="M248.84,116.36c.17,2.17-.06-1.53,1.39.4-1.28.24-.54,1.86-1.92.36Z" transform="translate(-161.28 -36.62)"/><path class="cls-6" d="M199.24,194.87c1.14.23.6,2.64-.54,1.86C198,196.2,198,194.55,199.24,194.87Z" transform="translate(-161.28 -36.62)"/><path class="cls-6" d="M284.69,74.7c1.71-.31,3.16-3.22,4.72-2.52-.15,1,.61,1.54,1.58,1.48.91-.5.88-1.81,2.08-1.92,2.45,3.18,3.38,1,6.53,3.2,1.45-.48,1.52-2.47,1.93-3.87.84.39-.27.93-.07,1.44,2.64-3,3-7.25,5.32-10.65-.19.8,1.42,1.17,1.51,1l-2.67,7.64c4.27,5.93,10.18,8.16,17.29,9.72,2,.63,2.77-3.48,4.13-.86-.49,3.93-6.56,3.83-6.33,7.53,1.81,3.85,2.71,8.75,3.63,12-.39,2.71-4.45-.84-3.87,2.91.63.43,1.64.58,1.93,1.52-1.17.87-3.51-1.13-4.19,1.2.11,1.19,2.19,1.14,1.15,2.65-1.37.91-2.22-1.9-3.69-.32-3.33,1,.63,2.86-.62,4.41a3.54,3.54,0,0,1-2.61-1.62c-1.15.33-3.5.75-4.71,2a5.18,5.18,0,0,1,.89,3c-1.9-.76-3.56-3.2-6.11-3.29-2.21.52.68,2.52-1.57,2.82-.83-.95-.67-3.07-2.11-3.69l-2.95,1.31c-5.38-3.53-7.62-9.17-13.52-11.94-.78-3.71-3.11-6.81-5.27-9.61,1.41-.69,2.65-1.14,2.89-2.83-.5-.9-.91-1.93-1.4-2.83.4-.84,1.54-.61,1.69-1.63l-1.07-2.22c1.5-.83,3.33-1,4-2.62,1-1.17-.39-2.12-.8-3.15C283.08,74.33,284,74.6,284.69,74.7Z" transform="translate(-161.28 -36.62)"/><path class="cls-6" d="M194,214.31a2.19,2.19,0,0,1-.84,2C192.4,215.82,193,214.38,194,214.31Z" transform="translate(-161.28 -36.62)"/><path class="cls-6" d="M279.29,113.21c.33-1.82,2.26-.3,2.79-1.61,2.23,1.36,4.36-1.46,6.27,1.17,3.29,1.16.1,4.16,3.22,5.57-1.49,2.7-.93,7.55-5.83,8.44-2.24,1.62-3.44-2.56-5,.47a3.75,3.75,0,0,0-1.27-2.74c-.63-.43-1.92.35-2.29-.46-.05-1.53.45-3.6-1.59-3.89,1.5-.83,1-2.28.15-3.44C279.06,117.33,276,112.82,279.29,113.21Z" transform="translate(-161.28 -36.62)"/><rect class="cls-5" x="278.91" y="117.18" width="0.15" height="0.77" transform="translate(-137.61 243.64) rotate(-55.36)"/><path class="cls-5" d="M279.19,119.29c2.09-.06-.39.83,1.08,1.67-1.29-1.64-.06.89-1.54.61-.44-1.24.81-.37,1-1.39L278.27,119l1,.15Z" transform="translate(-161.28 -36.62)"/><polygon class="cls-5" points="120.43 79.57 119.7 79.81 119.96 79.43 120.43 79.57"/><path class="cls-5" d="M284.62,114.66c.42.47.08.43-.43.63Z" transform="translate(-161.28 -36.62)"/><polygon class="cls-5" points="119.26 85.83 119.62 84.78 119.69 85.75 119.26 85.83"/><polygon class="cls-5" points="121.64 85.61 120.54 85.6 121.39 85.44 121.64 85.61"/><path class="cls-5" d="M283.08,123.08l.77,0Z" transform="translate(-161.28 -36.62)"/><path class="cls-5" d="M285.12,120.4l.28.94Z" transform="translate(-161.28 -36.62)"/><path class="cls-5" d="M286,121.56l.9.06Z" transform="translate(-161.28 -36.62)"/><path class="cls-6" d="M296,163.31c-.14,1,.26,2.59-1.18,2.53a1.58,1.58,0,0,1-1.29-2.19C294.18,162.77,295.55,162.41,296,163.31Z" transform="translate(-161.28 -36.62)"/><path class="cls-6" d="M303.35,165.93c3.82,2.28,7-2.81,11.25-2.27,1.94.41,0,2.63,1.73,3.42.52-.75,1.42-1.25,1.73-2,.37.81-.73,2.66,1,3.11,1.52.5,3.52,0,5-.25,2.55,2.51-1.61,9.87,4.79,8.15-.95.83-2.77.5-3.08,1.77.22,1.83,5.32,1.45,2.95,4.08-.65.12-1.37.37-1,1.18.26,2,3.46.91,3.35,2.69-2.52.68-4,3.16-6.84,2.35-1.71.86-.51,3.17-1,4.14-1.44,2.36-4.1-.79-6,1.09a7.49,7.49,0,0,1-1.85,6.17c-1-2.56-3.05-.43-4.2-.11-1.42-4.14-6.2-.19-7.67-3.44-.31.72-.2,1.91-1.22,1.76-.61-1.54,2-2.89-.31-4.12-1.15-.23-1.19-2.32-2.77-1.92-.77,0-1,1.94-1.8,1,.54-2.41-1.28-5.16-2.17-7.63-.4-1.58,2.36-1.54.86-3.13-.84-.4-2,.47-2.75-.6,1.89-4.09,6.34-8.64,5.76-14.26A4.47,4.47,0,0,1,303.35,165.93Z" transform="translate(-161.28 -36.62)"/><path class="cls-6" d="M267.82,140.39c1.74.45,2.83,1,3.48,2.77.57,1.33-1,2.28,0,3.53-1.19-.45-1.39,1.46-2.37,1.53-1.4.15-3,.54-4.19-.66-.74-1.63-2.27-4-.67-5.49C265,140.68,266.58,140.84,267.82,140.39Z" transform="translate(-161.28 -36.62)"/><path class="cls-5" d="M266,144.9a.87.87,0,0,1-1.58.4c1.25-1-.91-1.37.34-2.37C265.7,143.2,266.05,144.56,266,144.9Z" transform="translate(-161.28 -36.62)"/><path class="cls-5" d="M265.87,143l.33.6Z" transform="translate(-161.28 -36.62)"/><path class="cls-5" d="M269.9,143.31l-.89-.06.16.3c.18-.25-1.05-.9-1.16-1.55C268.64,142.44,271,141.67,269.9,143.31Z" transform="translate(-161.28 -36.62)"/><path class="cls-5" d="M268.56,146.86c-.25-.18-1.1-2.44.35-2.93-2.15,1.49,1.6.92,1.32,2.4l-.88-.61c1,1.8-1.34,1.13-2,1.58.08-.12.21,0,.3-.16a1,1,0,0,0-1.22-.66c-.13-.09,0-.55-.38-.26C266.86,144.75,267.34,146.75,268.56,146.86Z" transform="translate(-161.28 -36.62)"/><path class="cls-5" d="M266.47,147.46l-.47.42c.14-.47-.67-.65-.19-1.07Z" transform="translate(-161.28 -36.62)"/></g></g></svg>